<?xml version="1.0" standalone="no"?>
<!DOCTYPE svg PUBLIC "-//W3C//DTD SVG 1.1//EN" "http://www.w3.org/Graphics/SVG/1.1/DTD/svg11.dtd" >
<svg xmlns="http://www.w3.org/2000/svg" xmlns:xlink="http://www.w3.org/1999/xlink" version="1.1">
<metadata>
Created by FontForge 20170731 at Fri Mar  7 23:53:43 2014
 By Aleksey,,,
Copyright 2008 Jonas Schudel Dalton Maag Ltd. All rights reserved. This font may not be altered in any way without prior permission of Dalton Maag Ltd. DaMa is a trademark of Dalton Maag Ltd.
</metadata>
<defs>
<font id="Effra-Medium" horiz-adv-x="360" >
  <font-face 
    font-family="Effra"
    font-weight="500"
    font-stretch="normal"
    units-per-em="1000"
    panose-1="2 0 6 6 8 0 0 2 0 4"
    ascent="800"
    descent="-200"
    x-height="469"
    cap-height="667"
    bbox="-157 -233 1255 931"
    underline-thickness="20"
    underline-position="-193"
    unicode-range="U+0020-FB04"
  />
<missing-glyph horiz-adv-x="560" 
d="M50 0v700h460v-700h-460zM115 54h330v592h-330v-592z" />
    <glyph glyph-name="ff" unicode="ff" horiz-adv-x="651" 
d="M93 0v373h-80v96h80v25q0 55 17.5 95t45.5 59.5t54.5 28t52.5 8.5q77 0 136 -49l-55 -78q-32 25 -64 25q-34 0 -52 -22t-18 -61v-31h194v29q0 94 52.5 140.5t121.5 46.5q89 0 146 -49l-55 -78q-35 25 -72 25q-36 0 -56 -22.5t-20 -64.5v-27h121v-96h-120v-373h-118v373
h-193v-373h-118z" />
    <glyph glyph-name="fi" unicode="fi" horiz-adv-x="565" 
d="M93 0v373h-80v96h80v5q0 113 65.5 162t170.5 49q40 0 91 -13t90 -37l-49 -89q-62 38 -133 38q-62 0 -90 -21t-28 -69v-25h292v-469h-118v373h-173v-373h-118z" />
    <glyph glyph-name="fl" unicode="fl" horiz-adv-x="570" 
d="M93 0v373h-80v96h80v14q0 202 222 202q44 0 90 -11t69 -21t38 -18v-635h-118v572q-29 12 -81 12q-58 0 -80.5 -22t-22.5 -77v-16h121v-96h-120v-373h-118z" />
    <glyph glyph-name="ffi" unicode="ffi" horiz-adv-x="876" 
d="M93 0v373h-80v96h80v25q0 55 17.5 95t45.5 59.5t54.5 28t52.5 8.5q77 0 136 -49l-55 -78q-32 25 -64 25q-34 0 -52 -22t-18 -61v-31h194v5q0 113 64.5 162t164.5 49q107 0 188 -50l-49 -89q-62 38 -133 38q-63 0 -90.5 -23.5t-27.5 -81.5v-10h292v-469h-118v373h-173
v-373h-118v373h-193v-373h-118z" />
    <glyph glyph-name="ffl" unicode="ffl" horiz-adv-x="881" 
d="M93 0v373h-80v96h80v25q0 55 17.5 95t45.5 59.5t54.5 28t52.5 8.5q77 0 136 -49l-55 -78q-32 25 -64 25q-34 0 -52 -22t-18 -61v-31h194v14q0 202 222 202q44 0 90 -11t69 -21t38 -18v-635h-118v572q-29 12 -81 12q-58 0 -80.5 -22t-22.5 -77v-16h121v-96h-120v-373h-118
v373h-193v-373h-118z" />
    <glyph glyph-name=".notdef" horiz-adv-x="560" 
d="M50 0v700h460v-700h-460zM115 54h330v592h-330v-592z" />
    <glyph glyph-name=".null" horiz-adv-x="0" 
 />
    <glyph glyph-name="nonmarkingreturn" horiz-adv-x="333" 
 />
    <glyph glyph-name="space" unicode=" " horiz-adv-x="181" 
 />
    <glyph glyph-name="exclam" unicode="!" horiz-adv-x="279" 
d="M76 209l-2 458h131l-2 -458h-127zM68 0v138h143v-138h-143z" />
    <glyph glyph-name="quotedbl" unicode="&#x22;" horiz-adv-x="388" 
d="M53 435v232h112v-232h-112zM223 435v232h112v-232h-112z" />
    <glyph glyph-name="numbersign" unicode="#" horiz-adv-x="745" 
d="M121 0l40 151h-93v93h118l38 142h-95v93h120l40 150h106l-40 -150h123l40 150h106l-40 -150h93v-93h-118l-38 -142h95v-93h-120l-40 -151h-106l40 151h-123l-40 -151h-106zM292 244h123l38 142h-123z" />
    <glyph glyph-name="dollar" unicode="$" horiz-adv-x="545" 
d="M13 104l84 77q72 -80 143 -90v184q-4 1 -9 2t-8 2q-176 48 -176 183q0 70 49 118.5t144 56.5v92h75v-92q23 -3 43.5 -8t37 -12.5t29 -14t24 -16t17 -14.5t14.5 -14l8 -9l-83 -75q-42 46 -90 58v-164q191 -46 191 -197q0 -74 -52.5 -123t-138.5 -61v-93h-75v91
q-78 7 -135.5 41.5t-91.5 77.5zM315 254v-161q76 13 76 81q0 28 -16 46.5t-60 33.5zM240 385v151q-80 -11 -80 -74q0 -29 17 -46t63 -31z" />
    <glyph glyph-name="percent" unicode="%" horiz-adv-x="925" 
d="M203 0l406 630h107l-406 -630h-107zM210 285q-72 0 -115.5 47t-43.5 134t43.5 134t115.5 47t115.5 -47t43.5 -134t-43.5 -134t-115.5 -47zM210 364q25 0 43 24.5t18 77.5t-18 77.5t-43 24.5t-43 -24.5t-18 -77.5t18 -77.5t43 -24.5zM715 -9q-72 0 -115.5 47t-43.5 134
t43.5 134t115.5 47t115.5 -47t43.5 -134t-43.5 -134t-115.5 -47zM715 70q25 0 43 24.5t18 77.5t-18 77.5t-43 24.5t-43 -24.5t-18 -77.5t18 -77.5t43 -24.5z" />
    <glyph glyph-name="ampersand" unicode="&#x26;" horiz-adv-x="643" 
d="M480 0l-51 61q-75 -77 -185 -77q-104 0 -160.5 55t-56.5 136q0 118 131 211l-2 3q-49 57 -49 130q0 69 51 117.5t140 48.5q124 0 179 -112l-88 -56q-39 65 -84 65q-34 0 -53.5 -17.5t-19.5 -45.5q0 -39 42 -86l160 -194l86 105l88 -71l-101 -123l125 -150h-152zM357 148
l-131 156q-43 -33 -59.5 -60t-16.5 -62q0 -40 25.5 -63.5t74.5 -23.5q59 0 107 53z" />
    <glyph glyph-name="quotesingle" unicode="'" horiz-adv-x="218" 
d="M53 435v232h112v-232h-112z" />
    <glyph glyph-name="parenleft" unicode="(" horiz-adv-x="297" 
d="M269 -93h-116q-95 181 -95 399q0 219 95 400h116q-36 -61 -61 -172t-25 -228t25 -229t61 -170z" />
    <glyph glyph-name="parenright" unicode=")" horiz-adv-x="297" 
d="M144 -93h-116q35 60 60.5 172t25.5 227q0 116 -25.5 227t-60.5 173h116q95 -181 95 -400q0 -218 -95 -399z" />
    <glyph glyph-name="asterisk" unicode="*" horiz-adv-x="501" 
d="M104 380l-46 80l111 58l-111 58l46 80l106 -67l-5 125h92l-4 -125l104 67l46 -80l-109 -58l109 -58l-46 -80l-104 67l4 -125h-92l5 125z" />
    <glyph glyph-name="plus" unicode="+" horiz-adv-x="545" 
d="M74 272v99h149v147h100v-147h149v-99h-149v-146h-100v146h-149z" />
    <glyph glyph-name="comma" unicode="," horiz-adv-x="279" 
d="M66 -143l63 143h-51v139h143v-137l-85 -145h-70z" />
    <glyph glyph-name="hyphen" unicode="-" horiz-adv-x="441" 
d="M68 223v112h305v-112h-305z" />
    <glyph glyph-name="period" unicode="." horiz-adv-x="279" 
d="M68 0v138h143v-138h-143z" />
    <glyph glyph-name="slash" unicode="/" horiz-adv-x="426" 
d="M23 -16l266 701h114l-263 -701h-117z" />
    <glyph glyph-name="zero" unicode="0" horiz-adv-x="545" 
d="M272 -16q-119 0 -182.5 92t-63.5 247q0 150 63.5 237.5t183.5 87.5q119 0 182.5 -87.5t63.5 -237.5q0 -155 -63.5 -247t-183.5 -92zM273 92q60 0 92.5 64.5t32.5 166.5q0 98 -32.5 157t-93.5 59q-60 0 -92.5 -59t-32.5 -157q0 -102 33 -166.5t93 -64.5z" />
    <glyph glyph-name="one" unicode="1" horiz-adv-x="545" 
d="M131 0v103h108v398l-121 -64l-49 92l185 101h103v-527h104v-103h-330z" />
    <glyph glyph-name="two" unicode="2" horiz-adv-x="545" 
d="M63 0v79q0 33 11 65t22.5 52.5t39 49t40 39.5t46.5 40q14 12 39.5 33t34.5 29t21.5 22.5t16.5 27.5t4 30q0 31 -21.5 53.5t-68.5 22.5q-73 0 -117 -74l-88 63q70 116 215 116q101 0 153.5 -50t52.5 -120q0 -61 -34 -108.5t-94 -97.5q-11 -9 -42.5 -34.5t-41.5 -34.5
t-27.5 -27.5t-23 -34.5t-5.5 -34h272v-107h-405z" />
    <glyph glyph-name="three" unicode="3" horiz-adv-x="545" 
d="M21 55l68 83q60 -53 134 -53q54 0 86 29.5t32 77.5q0 101 -109 101q-20 0 -56 -9l-35 56l161 181h-236v108h377v-90l-140 -164q81 -9 122 -58t41 -126q0 -96 -68.5 -152.5t-173.5 -56.5q-123 0 -203 73z" />
    <glyph glyph-name="four" unicode="4" horiz-adv-x="545" 
d="M40 121v99l275 410h118v-409h65v-100h-65v-121h-113v121h-280zM154 221h166v243z" />
    <glyph glyph-name="five" unicode="5" horiz-adv-x="545" 
d="M24 54l66 85q58 -52 137 -52q60 0 89.5 33.5t29.5 83.5q0 39 -29 72.5t-96 33.5q-36 0 -91 -19l-60 46l63 292h327v-110h-242l-25 -121q20 9 65 9q93 0 151.5 -54t58.5 -144q0 -98 -60.5 -162.5t-187.5 -64.5q-117 0 -196 72z" />
    <glyph glyph-name="six" unicode="6" horiz-adv-x="545" 
d="M493 606l-51 -93l-30 15q-38 16 -78 16q-69 0 -114 -54.5t-45 -125.5q1 1 11 7t13 7.5t13.5 7t16 7.5t16 5.5t19 5t20 3t23.5 1.5q88 0 142 -55t54 -151q0 -93 -57 -156.5t-158 -63.5q-105 0 -168.5 77.5t-63.5 232.5q0 161 72.5 258.5t206.5 97.5q85 0 158 -42zM174 269
q0 -184 114 -184q47 0 75.5 33.5t28.5 87.5q0 46 -26.5 73.5t-69.5 27.5q-65 0 -122 -38z" />
    <glyph glyph-name="seven" unicode="7" horiz-adv-x="545" 
d="M255 0h-128q40 128 111 289t114 230h-287v111h408v-106q-42 -67 -116 -241t-102 -283z" />
    <glyph glyph-name="eight" unicode="8" horiz-adv-x="545" 
d="M273 391q39 11 63.5 37t24.5 56q0 33 -24.5 54.5t-63.5 21.5q-37 0 -62.5 -22t-25.5 -57q0 -27 24.5 -53t63.5 -37zM271 294q-48 -10 -81.5 -41.5t-33.5 -72.5q0 -49 35.5 -74t81.5 -25t81.5 25t35.5 74q0 41 -35 72.5t-84 41.5zM153 349q-33 19 -56 55t-23 77
q0 75 55 121t144 46q95 0 147 -44.5t52 -117.5q0 -44 -23.5 -79t-58.5 -54q120 -51 120 -174q0 -75 -60 -135t-177 -60q-119 0 -178 59t-59 134q0 59 31 103.5t86 68.5z" />
    <glyph glyph-name="nine" unicode="9" horiz-adv-x="545" 
d="M56 26l48 95q11 -7 37 -17q46 -16 86 -16q68 0 106 51t40 124q-53 -43 -135 -43q-86 0 -141.5 60.5t-55.5 147.5q0 92 59 156t160 64q105 0 168.5 -77.5t63.5 -232.5q0 -160 -67.5 -257t-199.5 -97q-50 0 -97.5 13.5t-71.5 28.5zM374 361q0 184 -114 184q-48 0 -78 -32.5
t-30 -85.5q0 -45 27.5 -73.5t74.5 -28.5q66 0 120 36z" />
    <glyph glyph-name="colon" unicode=":" horiz-adv-x="279" 
d="M68 0v138h143v-138h-143zM68 331v138h143v-138h-143z" />
    <glyph glyph-name="semicolon" unicode=";" horiz-adv-x="291" 
d="M68 -143l63 143h-51v139h143v-137l-85 -145h-70zM80 331v138h143v-138h-143z" />
    <glyph glyph-name="less" unicode="&#x3c;" horiz-adv-x="545" 
d="M71 285v72l357 193l43 -85l-267 -144l267 -144l-43 -85z" />
    <glyph glyph-name="equal" unicode="=" horiz-adv-x="545" 
d="M74 355v99h398v-99h-398zM74 187v99h398v-99h-398z" />
    <glyph glyph-name="greater" unicode="&#x3e;" horiz-adv-x="545" 
d="M117 92l-43 85l267 144l-267 144l43 85l357 -193v-72z" />
    <glyph glyph-name="question" unicode="?" horiz-adv-x="512" 
d="M155 0v138h143v-138h-143zM166 209v22q0 50 16 93t67 78q27 18 43.5 31t31.5 34t15 41q0 31 -23.5 50t-63.5 19q-17 0 -34.5 -4t-30 -9t-26 -13.5t-20 -13.5t-15.5 -13t-10 -8l-78 70q8 11 21 23.5t39 31.5t66.5 31t88.5 12q94 0 150 -50.5t56 -122.5q0 -54 -20.5 -89
t-67.5 -69q-36 -26 -49.5 -37.5t-24.5 -33t-11 -51.5v-22h-120z" />
    <glyph glyph-name="at" unicode="@" horiz-adv-x="958" 
d="M575 166v46l-35 2q-38 2 -56 2q-51 0 -78.5 -21.5t-27.5 -52.5q0 -30 23 -47t65 -17t75.5 26.5t33.5 61.5zM251 53l-69 -71q-54 38 -96.5 116t-42.5 178q0 101 36.5 181.5t99 129.5t139.5 74.5t163 25.5q125 0 221 -41.5t154.5 -131.5t58.5 -219q0 -70 -15 -126
t-38.5 -90t-53.5 -56t-57.5 -30.5t-53.5 -8.5q-79 0 -103 60q-40 -36 -78.5 -48t-95.5 -12q-53 0 -102.5 40.5t-49.5 112.5q0 80 56 124t150 44q22 0 64 -2l37 -2v11q0 35 -26 55t-69 20q-75 0 -139 -41l-54 80q38 29 83 44t124 15q87 0 140.5 -47.5t53.5 -122.5v-196
q0 -15 8.5 -24.5t22.5 -9.5q20 0 39.5 19t35.5 70t16 126q0 76 -28 134.5t-76.5 92t-106 50t-123.5 16.5q-57 0 -111 -17t-103 -51.5t-79 -96.5t-30 -143q0 -85 30 -143.5t68 -88.5z" />
    <glyph glyph-name="A" unicode="A" horiz-adv-x="646" 
d="M5 0l253 667h130l253 -667h-140l-58 169h-248l-58 -169h-132zM230 273h177l-88 259z" />
    <glyph glyph-name="B" unicode="B" horiz-adv-x="596" 
d="M70 0v667h229q102 0 159 -49t57 -125q0 -61 -39 -100t-67 -39q49 -5 94 -45t45 -118q0 -191 -249 -191h-229zM191 401h102q43 0 72 19.5t29 61.5t-29.5 60t-71.5 18h-102v-159zM191 107h107q125 0 125 93q0 53 -38 74.5t-87 21.5h-107v-189z" />
    <glyph glyph-name="C" unicode="C" horiz-adv-x="680" 
d="M569 198l88 -76q-34 -52 -110 -95t-164 -43q-149 0 -244 98t-95 248q0 148 96.5 250.5t246.5 102.5q175 0 270 -134l-89 -79q-72 102 -181 102q-95 0 -153 -69.5t-58 -169.5q0 -98 57 -164t148 -66q33 0 59.5 5.5t49 20t32 21t28.5 27.5z" />
    <glyph glyph-name="D" unicode="D" horiz-adv-x="726" 
d="M70 0v667h249q163 0 258.5 -84t95.5 -253q0 -160 -97.5 -245t-257.5 -85h-248zM196 112h111q114 0 174 55t60 161q0 227 -234 227h-111v-443z" />
    <glyph glyph-name="E" unicode="E" horiz-adv-x="568" 
d="M70 0v667h432v-111h-306v-157h225v-112h-225v-174h329v-113h-455z" />
    <glyph glyph-name="F" unicode="F" horiz-adv-x="534" 
d="M70 0v667h431v-111h-305v-173h228v-112h-228v-271h-126z" />
    <glyph glyph-name="G" unicode="G" horiz-adv-x="723" 
d="M421 246v107h239v-276q-99 -93 -267 -93q-160 0 -254.5 98t-94.5 248q0 148 96.5 250.5t246.5 102.5q175 0 270 -134l-89 -79q-72 102 -181 102q-95 0 -153 -69.5t-58 -169.5q0 -105 64.5 -170t157.5 -65q92 0 142 44v104h-119z" />
    <glyph glyph-name="H" unicode="H" horiz-adv-x="723" 
d="M70 0v667h126v-268h331v268h126v-667h-126v287h-331v-287h-126z" />
    <glyph glyph-name="I" unicode="I" horiz-adv-x="266" 
d="M70 0v667h126v-667h-126z" />
    <glyph glyph-name="J" unicode="J" horiz-adv-x="508" 
d="M10 77l88 80q31 -34 57.5 -46t63.5 -12q39 0 68.5 27.5t29.5 76.5v464h126v-471q0 -110 -64 -162t-154 -52q-140 0 -215 95z" />
    <glyph glyph-name="K" unicode="K" horiz-adv-x="621" 
d="M70 0v667h126v-274l247 274h143l-246 -273l273 -394h-152l-203 303l-62 -69v-234h-126z" />
    <glyph glyph-name="L" unicode="L" horiz-adv-x="553" 
d="M70 0v667h126v-555h329v-112h-455z" />
    <glyph glyph-name="M" unicode="M" horiz-adv-x="789" 
d="M62 0l32 667h117l185 -315l182 315h117l32 -667h-123l-22 462l-160 -272h-59l-161 265l-22 -455h-118z" />
    <glyph glyph-name="N" unicode="N" horiz-adv-x="713" 
d="M70 0v667h127l323 -474v474h123v-667h-124l-326 480v-480h-123z" />
    <glyph glyph-name="O" unicode="O" horiz-adv-x="782" 
d="M391 -18q-145 0 -246 102.5t-101 249.5t100.5 249t246.5 102q145 0 246 -102.5t101 -248.5q0 -147 -101 -249.5t-246 -102.5zM391 101q96 0 155.5 69t59.5 167q0 99 -59 166.5t-156 67.5t-156 -67.5t-59 -166.5q0 -98 59.5 -167t155.5 -69z" />
    <glyph glyph-name="P" unicode="P" horiz-adv-x="558" 
d="M70 0v667h214q66 0 114 -21t72 -54.5t34.5 -66.5t10.5 -66q0 -54 -20 -95.5t-52.5 -66t-71 -37t-79.5 -12.5h-101v-248h-121zM191 354h91q48 0 76.5 28t28.5 73q0 47 -30 76.5t-75 29.5h-91v-207z" />
    <glyph glyph-name="Q" unicode="Q" horiz-adv-x="782" 
d="M628 -83l-80 102q-76 -37 -157 -37q-145 0 -246 102.5t-101 249.5t100.5 249t246.5 102q145 0 246 -102.5t101 -248.5q0 -153 -110 -258l75 -96zM472 116l-76 98l75 63l79 -102q56 67 56 162q0 99 -59 166.5t-156 67.5t-156 -67.5t-59 -166.5q0 -98 59.5 -167t155.5 -69
q43 0 81 15z" />
    <glyph glyph-name="R" unicode="R" horiz-adv-x="586" 
d="M70 0v667h221q60 0 106.5 -19t72 -49t38.5 -63.5t13 -67.5q0 -132 -112 -189l154 -279h-142l-135 263h-95v-263h-121zM191 367h101q47 0 74 27.5t27 68.5q0 43 -28 70t-73 27h-101v-193z" />
    <glyph glyph-name="S" unicode="S" horiz-adv-x="593" 
d="M31 107l88 81q78 -90 169 -90q57 0 86.5 26t29.5 66q0 43 -35 66.5t-125 41.5q-88 17 -133.5 70.5t-45.5 124.5q0 81 60 136.5t172 55.5q133 0 211 -91l3 -3l-83 -78l-9 9q-9 8 -15 12.5t-19.5 13t-25.5 13.5t-29.5 9t-36.5 4q-48 0 -74.5 -23.5t-26.5 -51.5
q0 -37 30 -59.5t109 -37.5q88 -18 143.5 -70t55.5 -145q0 -87 -68 -146t-172 -59q-160 0 -259 125z" />
    <glyph glyph-name="T" unicode="T" horiz-adv-x="624" 
d="M249 0v556h-226v111h578v-111h-226v-556h-126z" />
    <glyph glyph-name="U" unicode="U" horiz-adv-x="674" 
d="M65 246v421h126v-399q0 -80 34 -122.5t112 -42.5t112 42.5t34 122.5v399h126v-421q0 -115 -73 -189.5t-199 -74.5t-199 74.5t-73 189.5z" />
    <glyph glyph-name="V" unicode="V" horiz-adv-x="636" 
d="M253 0l-248 667h140l177 -509l177 509h132l-248 -667h-130z" />
    <glyph glyph-name="W" unicode="W" horiz-adv-x="880" 
d="M183 0l-173 667h138l109 -499l129 480h114l130 -480l108 499h132l-175 -667h-132l-124 441l-126 -441h-130z" />
    <glyph glyph-name="X" unicode="X" horiz-adv-x="605" 
d="M5 0l222 345l-213 322h152l139 -218l134 218h137l-205 -319l229 -348h-152l-154 243l-152 -243h-137z" />
    <glyph glyph-name="Y" unicode="Y" horiz-adv-x="600" 
d="M236 0v293l-231 374h138l160 -266l160 266h132l-231 -374v-293h-128z" />
    <glyph glyph-name="Z" unicode="Z" horiz-adv-x="658" 
d="M53 0v110l393 446h-375v111h526v-111l-385 -446h393v-110h-552z" />
    <glyph glyph-name="bracketleft" unicode="[" horiz-adv-x="330" 
d="M73 -93v799h234v-105h-116v-587h116v-107h-234z" />
    <glyph glyph-name="backslash" unicode="\" horiz-adv-x="426" 
d="M286 -16l-263 701h114l266 -701h-117z" />
    <glyph glyph-name="bracketright" unicode="]" horiz-adv-x="330" 
d="M23 -93v107h116v587h-116v105h234v-799h-234z" />
    <glyph glyph-name="asciicircum" unicode="^" horiz-adv-x="562" 
d="M53 308l173 359h110l173 -359h-117l-111 245l-111 -245h-117z" />
    <glyph glyph-name="underscore" unicode="_" horiz-adv-x="500" 
d="M0 -120v55h500v-55h-500z" />
    <glyph glyph-name="grave" unicode="`" horiz-adv-x="502" 
d="M223 540l-79 142h126l48 -142h-95z" />
    <glyph glyph-name="a" unicode="a" horiz-adv-x="504" 
d="M338 0l-3 44q-20 -25 -59.5 -42t-85.5 -17q-64 0 -113 39.5t-49 112.5q0 80 56 124t150 44q22 0 64 -2l37 -2v11q0 35 -27.5 55t-73.5 20q-69 0 -133 -41l-54 80q83 59 203 59q89 0 143.5 -47t54.5 -123v-315h-110zM335 166v46l-35 2q-38 2 -56 2q-53 0 -78 -21t-25 -53
q0 -64 85 -64q42 0 75.5 26.5t33.5 61.5z" />
    <glyph glyph-name="b" unicode="b" horiz-adv-x="555" 
d="M58 15v652h118v-230q15 15 50 28.5t78 13.5q98 0 156.5 -68.5t58.5 -170.5q0 -108 -73 -182t-192 -74q-107 0 -196 31zM176 273v-177q27 -10 76 -10q68 0 107.5 44.5t39.5 106.5q0 59 -29 99t-85 40q-53 0 -81 -27t-28 -76z" />
    <glyph glyph-name="c" unicode="c" horiz-adv-x="492" 
d="M401 138l70 -76q-72 -77 -183 -77q-118 0 -185 68t-67 182q0 104 71 177t181 73q113 0 184 -76l-75 -76q-43 49 -109 49q-65 0 -99 -42.5t-34 -104.5q0 -59 34.5 -103t98.5 -44q69 0 113 50z" />
    <glyph glyph-name="d" unicode="d" horiz-adv-x="557" 
d="M385 0l-3 46q-55 -62 -140 -62q-81 0 -143.5 66t-62.5 176q0 99 56 167q36 43 87.5 64.5t92.5 21.5q29 0 50 -3.5t28 -5.5t32 -12v209h117v-667h-114zM382 208v144q-30 25 -97 25q-59 0 -98 -49q-32 -43 -32 -102q0 -62 31 -101t86 -39t82.5 37.5t27.5 84.5z" />
    <glyph glyph-name="e" unicode="e" horiz-adv-x="538" 
d="M435 140l64 -72l-2 -2q-75 -82 -213 -82q-112 0 -180 71t-68 185q0 105 67 175t171 70q62 0 108.5 -23t72 -62.5t38 -85.5t12.5 -98v-17h-350q0 -49 40.5 -81.5t89.5 -32.5q95 0 150 55zM154 284h230q0 39 -29.5 70.5t-80.5 31.5q-54 0 -87 -31.5t-33 -70.5z" />
    <glyph glyph-name="f" unicode="f" horiz-adv-x="340" 
d="M93 0v373h-80v96h80v29q0 94 52.5 140.5t121.5 46.5q89 0 146 -49l-55 -78q-35 25 -72 25q-36 0 -56 -22.5t-20 -64.5v-27h121v-96h-120v-373h-118z" />
    <glyph glyph-name="g" unicode="g" horiz-adv-x="555" 
d="M81 -163l53 87q53 -36 137 -36q47 0 77.5 28.5t30.5 77.5v51q-53 -45 -128 -45q-99 0 -157 63.5t-58 164.5q0 108 72.5 179.5t192.5 71.5q107 0 196 -31v-456q0 -96 -62.5 -150t-161.5 -54q-128 0 -192 49zM379 199v168q-27 10 -76 10q-68 0 -107.5 -42.5t-39.5 -103.5
q0 -57 28.5 -92.5t85.5 -35.5q109 0 109 96z" />
    <glyph glyph-name="h" unicode="h" horiz-adv-x="551" 
d="M58 0v667h116v-246q52 58 141 58q86 0 133 -52.5t47 -141.5v-285h-118v284q0 44 -24 69t-64 25q-48 0 -80.5 -36t-32.5 -88v-254h-118z" />
    <glyph glyph-name="i" unicode="i" horiz-adv-x="244" 
d="M59 543v124h126v-124h-126zM63 0v469h118v-469h-118z" />
    <glyph glyph-name="j" unicode="j" horiz-adv-x="244" 
d="M58 543v124h126v-124h-126zM-87 -163l44 80q27 -16 54 -16q24 0 38 19.5t14 55.5v493h118v-470q0 -199 -154 -199q-61 0 -114 37z" />
    <glyph glyph-name="k" unicode="k" horiz-adv-x="512" 
d="M58 0v667h118v-364l169 166h139l-176 -173l196 -296h-141l-136 216l-51 -50v-166h-118z" />
    <glyph glyph-name="l" unicode="l" horiz-adv-x="234" 
d="M58 0v667h118v-667h-118z" />
    <glyph glyph-name="m" unicode="m" horiz-adv-x="852" 
d="M58 0v469h113l3 -53q56 63 136 63q93 0 141 -68q36 37 73.5 52.5t87.5 15.5q88 0 136 -52t48 -142v-285h-118v284q0 45 -22.5 69.5t-61.5 24.5q-48 0 -78 -35.5t-30 -88.5v-254h-118v284q0 45 -22.5 69.5t-61.5 24.5q-48 0 -78 -35.5t-30 -88.5v-254h-118z" />
    <glyph glyph-name="n" unicode="n" horiz-adv-x="551" 
d="M58 0v469h113l3 -53q58 63 141 63q87 0 133.5 -51.5t46.5 -142.5v-285h-118v284q0 44 -24 69t-64 25q-48 0 -80.5 -36t-32.5 -88v-254h-118z" />
    <glyph glyph-name="o" unicode="o" horiz-adv-x="576" 
d="M36 235q0 104 71 177t181 73t181 -73t71 -177t-71 -177.5t-181 -73.5t-181 73.5t-71 177.5zM288 86q63 0 98 46t35 103t-35 102.5t-98 45.5t-98 -45.5t-35 -102.5t35 -103t98 -46z" />
    <glyph glyph-name="p" unicode="p" horiz-adv-x="571" 
d="M58 -200v669h114l3 -53q55 62 149 62q101 0 156 -72.5t55 -173.5q0 -94 -56 -162q-71 -86 -185 -86q-11 0 -21.5 0.5t-18 1.5t-16.5 2.5t-13.5 3t-13 4t-11.5 4t-12.5 5t-12.5 4.5v-209h-117zM175 254v-139q35 -29 106 -29q61 0 98 43.5t37 102.5q0 65 -29 104.5
t-93 39.5q-51 0 -85 -39.5t-34 -82.5z" />
    <glyph glyph-name="q" unicode="q" horiz-adv-x="555" 
d="M379 -200v227q-43 -43 -117 -43q-105 0 -165.5 70t-60.5 174q0 108 72.5 179.5t192.5 71.5q107 0 196 -31v-648h-118zM379 195v172q-27 10 -76 10q-74 0 -110.5 -40.5t-36.5 -105.5q0 -60 29 -102t85 -42t82.5 25t26.5 83z" />
    <glyph glyph-name="r" unicode="r" horiz-adv-x="382" 
d="M58 0v469h113l3 -59q55 68 141 68q34 0 58 -9l-24 -111q-21 9 -54 9q-50 0 -84.5 -31.5t-34.5 -82.5v-253h-118z" />
    <glyph glyph-name="s" unicode="s" horiz-adv-x="478" 
d="M35 57l71 77q51 -51 132 -51q84 0 84 43q0 21 -23.5 36t-95.5 32q-150 38 -150 144q0 66 59 106.5t134 40.5q114 0 184 -52l-61 -83q-49 37 -123 37q-75 0 -75 -43q0 -21 25 -33.5t88 -27.5q76 -17 116 -52t40 -99q0 -66 -58.5 -107t-142.5 -41q-139 0 -204 73z" />
    <glyph glyph-name="t" unicode="t" horiz-adv-x="402" 
d="M98 160v213h-80v96h80v152h118v-152h126v-96h-126v-205q0 -83 57 -83q40 0 76 27l50 -73q-65 -54 -145 -54q-156 0 -156 175z" />
    <glyph glyph-name="u" unicode="u" horiz-adv-x="551" 
d="M56 184v285h118v-284q0 -44 24 -69t64 -25q48 0 80.5 36t32.5 88v254h118v-469h-113l-3 53q-56 -63 -141 -63q-87 0 -133.5 51.5t-46.5 142.5z" />
    <glyph glyph-name="v" unicode="v" horiz-adv-x="527" 
d="M204 0l-199 469h136l126 -336l126 336h129l-198 -469h-120z" />
    <glyph glyph-name="w" unicode="w" horiz-adv-x="749" 
d="M168 0l-159 469h130l90 -326l99 326h99l100 -326l89 326h124l-159 -469h-114l-96 283l-93 -283h-110z" />
    <glyph glyph-name="x" unicode="x" horiz-adv-x="507" 
d="M5 0l178 237l-170 232h149l94 -136l95 136h133l-165 -220l183 -249h-149l-107 153l-108 -153h-133z" />
    <glyph glyph-name="y" unicode="y" horiz-adv-x="527" 
d="M24 -176l53 83q27 -23 52 -23q23 0 38.5 18.5t33.5 63.5l15 38l-211 465h136l134 -321l118 321h129l-196 -469q-3 -9 -15 -40t-17.5 -43t-18.5 -38t-24.5 -37.5t-28.5 -26.5t-38.5 -21t-46.5 -6q-71 0 -113 36z" />
    <glyph glyph-name="z" unicode="z" horiz-adv-x="472" 
d="M46 0v90l239 280h-232v99h379v-92l-247 -281h247v-96h-386z" />
    <glyph glyph-name="braceleft" unicode="{" horiz-adv-x="304" 
d="M118 29l-14 170q-5 73 -73 73v70q68 0 73 73l14 170q7 87 49 121h124q-18 -18 -32 -49.5t-16 -60.5l-16 -195q-3 -35 -22.5 -60.5t-47.5 -33.5q28 -8 47.5 -33.5t22.5 -60.5l16 -195q2 -29 16 -61t32 -50h-124q-41 33 -49 122z" />
    <glyph glyph-name="bar" unicode="|" horiz-adv-x="245" 
d="M68 -164v997h109v-997h-109z" />
    <glyph glyph-name="braceright" unicode="}" horiz-adv-x="304" 
d="M137 -93h-124q18 18 32 50t16 61l16 195q3 35 22.5 60.5t47.5 33.5q-28 8 -47.5 33.5t-22.5 60.5l-16 195q-2 29 -16 60.5t-32 49.5h124q42 -34 49 -121l14 -170q5 -73 73 -73v-70q-68 0 -73 -73l-14 -170q-8 -89 -49 -122z" />
    <glyph glyph-name="asciitilde" unicode="~" horiz-adv-x="499" 
d="M88 238l-50 76q22 25 58 45t75 20q31 0 72.5 -23t70.5 -23q17 0 33.5 5t25 9.5t22 14t16.5 11.5l50 -76q-62 -67 -132 -67q-31 0 -73 24t-71 24q-9 0 -17.5 -1.5t-15 -2.5t-14.5 -4.5t-12 -5.5t-11.5 -7t-9.5 -6.5t-9 -7t-8 -5.5z" />
    <glyph glyph-name="uni00A0" unicode="&#xa0;" horiz-adv-x="200" 
 />
    <glyph glyph-name="exclamdown" unicode="&#xa1;" horiz-adv-x="279" 
d="M74 -198l2 458h127l2 -458h-131zM68 331v138h143v-138h-143z" />
    <glyph glyph-name="cent" unicode="&#xa2;" horiz-adv-x="545" 
d="M277 -19v86q-96 14 -150.5 81.5t-54.5 165.5q0 92 56.5 161t148.5 85v89h75v-87q96 -10 156 -74l-75 -76q-33 38 -81 48v-291q52 9 85 48l70 -76q-60 -66 -155 -76v-84h-75zM277 175v278q-42 -16 -64 -55t-22 -84q0 -41 22.5 -81.5t63.5 -57.5z" />
    <glyph glyph-name="sterling" unicode="&#xa3;" horiz-adv-x="545" 
d="M117 0v269h-76v96h76v77q0 24 5.5 49.5t20 54.5t37 51t61.5 36.5t88 14.5q48 0 88 -15t55.5 -26.5t38.5 -33.5l-77 -83q-25 25 -46.5 36t-56.5 11q-45 0 -66.5 -34t-21.5 -85v-53h194v-96h-194v-157h274v-112h-400z" />
    <glyph glyph-name="currency" unicode="&#xa4;" horiz-adv-x="545" 
d="M32 162l63 64q-28 46 -28 103q0 56 28 103l-63 64l69 69l63 -63q50 32 108 32q57 0 108 -32l63 63l69 -69l-64 -64q29 -47 29 -103t-29 -103l64 -64l-69 -69l-63 62q-49 -31 -108 -31q-61 0 -108 31l-63 -62zM163 329q0 -45 32 -77t77 -32t77 32t32 77t-32 77t-77 32
t-77 -32t-32 -77z" />
    <glyph glyph-name="yen" unicode="&#xa5;" horiz-adv-x="545" 
d="M74 116v74h139v77h-139v74h97l-165 290h138l132 -266l131 266h132l-165 -290h108v-74h-149v-77h149v-74h-149v-116h-120v116h-139z" />
    <glyph glyph-name="brokenbar" unicode="&#xa6;" horiz-adv-x="245" 
d="M68 -164v379h109v-379h-109zM68 454v379h109v-379h-109z" />
    <glyph glyph-name="section" unicode="&#xa7;" horiz-adv-x="452" 
d="M342 195l-201 132q-98 63 -96 168q0 78 52 134t142 56q69 0 146 -56l-57 -86q-51 35 -91 35q-34 0 -55.5 -22t-21.5 -49q0 -26 10 -45t43 -41l193 -131zM57 -156l57 86q51 -35 91 -35q34 0 55.5 22t21.5 49q0 26 -10 45t-43 41l-193 131l64 95l201 -132q98 -63 96 -168
q0 -78 -52 -134t-142 -56q-69 0 -146 56z" />
    <glyph glyph-name="dieresis" unicode="&#xa8;" horiz-adv-x="346" 
d="M207 557v109h115v-109h-115zM22 557v109h115v-109h-115z" />
    <glyph glyph-name="copyright" unicode="&#xa9;" horiz-adv-x="809" 
d="M404 -14q-145 0 -245.5 101.5t-100.5 247.5t100.5 247.5t246.5 101.5q145 0 245.5 -101.5t100.5 -247.5t-101 -247.5t-246 -101.5zM404 69q110 0 183.5 76.5t73.5 189.5q0 112 -74 189t-182 77q-109 0 -183.5 -77t-74.5 -189q0 -113 73.5 -189.5t183.5 -76.5zM497 279
l65 -52q-56 -80 -152 -80q-85 0 -137.5 54t-52.5 137q0 79 54 134t136 55q96 0 152 -80l-65 -50q-33 47 -82 47q-46 0 -74 -30.5t-28 -76.5q0 -43 29 -74t73 -31q49 0 82 47z" />
    <glyph glyph-name="ordfeminine" unicode="&#xaa;" horiz-adv-x="379" 
d="M90 546l-42 60q55 42 138 42q62 0 100 -33t38 -85v-208h-81q-1 3 -1 9q0 3 -0.5 8t-0.5 8q-13 -13 -37.5 -23t-46.5 -10q-49 0 -83.5 25.5t-34.5 76.5q0 54 37.5 80.5t103.5 26.5q26 0 61 -3v8q0 47 -58 47q-47 0 -93 -29zM241 436v18q-13 3 -55 3q-66 0 -66 -38
q0 -20 12.5 -27.5t41.5 -7.5q27 0 47 16t20 36z" />
    <glyph glyph-name="guillemotleft" unicode="&#xab;" horiz-adv-x="536" 
d="M162 47l-104 194l104 194h115l-99 -194l99 -194h-115zM358 47l-104 194l104 194h115l-99 -194l99 -194h-115z" />
    <glyph glyph-name="logicalnot" unicode="&#xac;" horiz-adv-x="545" 
d="M74 272v99h398v-245h-100v146h-298z" />
    <glyph glyph-name="uni00AD" unicode="&#xad;" horiz-adv-x="441" 
d="M68 223v112h305v-112h-305z" />
    <glyph glyph-name="registered" unicode="&#xae;" horiz-adv-x="809" 
d="M274 166v345h145q64 0 96.5 -32.5t32.5 -71.5q0 -69 -63 -98l83 -143h-92l-75 131h-44v-131h-83zM357 361h59q48 0 48 40q0 42 -48 42h-59v-82zM404 -14q-145 0 -245.5 101.5t-100.5 247.5t100.5 247.5t246.5 101.5q145 0 245.5 -101.5t100.5 -247.5t-101 -247.5
t-246 -101.5zM404 69q110 0 183.5 76.5t73.5 189.5q0 112 -74 189t-182 77q-109 0 -183.5 -77t-74.5 -189q0 -113 73.5 -189.5t183.5 -76.5z" />
    <glyph glyph-name="macron" unicode="&#xaf;" horiz-adv-x="347" 
d="M43 557v92h261v-92h-261z" />
    <glyph glyph-name="degree" unicode="&#xb0;" horiz-adv-x="337" 
d="M28 530q0 59 41 98t99 39q59 0 100 -39t41 -97q0 -59 -41 -98t-99 -39q-59 0 -100 39t-41 97zM169 467q27 0 44.5 18t17.5 46q0 27 -17.5 45t-45.5 18q-27 0 -44.5 -18t-17.5 -46q0 -27 17.5 -45t45.5 -18z" />
    <glyph glyph-name="plusminus" unicode="&#xb1;" horiz-adv-x="545" 
d="M74 0v99h398v-99h-398zM74 272v99h149v147h100v-147h149v-99h-149v-136h-100v136h-149z" />
    <glyph glyph-name="twosuperior" unicode="&#xb2;" 
d="M49 295v45q0 35 26 66t57 49t57 38.5t26 37.5q0 33 -39 33q-41 0 -97 -35l-36 70q69 48 145 48q63 0 95.5 -29.5t32.5 -76.5q0 -43 -26 -70.5t-69 -52t-61 -43.5h157v-80h-268z" />
    <glyph glyph-name="threesuperior" unicode="&#xb3;" 
d="M30 327l44 68q40 -32 88 -32q54 0 54 41q0 42 -66 42q-26 0 -49 -7l-16 35l106 84h-133v79h240v-76l-77 -61q91 -17 91 -106q0 -48 -40.5 -78.5t-108.5 -30.5q-79 0 -133 42z" />
    <glyph glyph-name="acute" unicode="&#xb4;" horiz-adv-x="502" 
d="M211 540l48 142h126l-79 -142h-95z" />
    <glyph glyph-name="mu" unicode="&#xb5;" horiz-adv-x="551" 
d="M59 -200v669h118v-284q0 -44 24 -69t64 -25q49 0 81 33.5t32 85.5v259h118v-469h-113l-3 48q-52 -58 -127 -58q-37 0 -76 24v-214h-118z" />
    <glyph glyph-name="paragraph" unicode="&#xb6;" horiz-adv-x="557" 
d="M362 -122v789h122v-789h-122zM303 299h-30q-235 0 -235 184t235 184h30v-368zM183 -122v377q34 -10 90 -10h30v-367h-120z" />
    <glyph glyph-name="periodcentered" unicode="&#xb7;" horiz-adv-x="279" 
d="M68 254v138h143v-138h-143z" />
    <glyph glyph-name="cedilla" unicode="&#xb8;" horiz-adv-x="705" 
d="M92 -198l13 67q33 -12 69 -12q58 0 58 32q0 30 -54 30q-36 0 -63 -11l11 67q41 12 84 12q53 0 84 -25.5t31 -67.5q0 -50 -38.5 -78t-92.5 -28q-42 0 -75 7q-19 3 -27 7z" />
    <glyph glyph-name="onesuperior" unicode="&#xb9;" 
d="M173 295v238l-78 -39l-36 72l126 71h86v-342h-98z" />
    <glyph glyph-name="ordmasculine" unicode="&#xba;" horiz-adv-x="423" 
d="M43 481q0 72 47.5 119.5t121.5 47.5q73 0 120.5 -47.5t47.5 -119.5t-47.5 -119.5t-120.5 -47.5q-74 0 -121.5 47.5t-47.5 119.5zM212 394q37 0 56.5 25t19.5 62t-19.5 62t-56.5 25t-57 -25t-20 -62t20 -62t57 -25z" />
    <glyph glyph-name="guillemotright" unicode="&#xbb;" horiz-adv-x="536" 
d="M63 47l99 194l-99 194h115l104 -194l-104 -194h-115zM259 47l99 194l-99 194h115l104 -194l-104 -194h-115z" />
    <glyph glyph-name="onequarter" unicode="&#xbc;" horiz-adv-x="925" 
d="M200 295v238l-78 -39l-36 72l126 71h86v-342h-98zM210 0l406 630h107l-406 -630h-107zM535 61v71l172 211h96v-211h41v-71h-41v-60h-87v60h-181zM613 132h103v122z" />
    <glyph glyph-name="onehalf" unicode="&#xbd;" horiz-adv-x="925" 
d="M180 295v238l-78 -39l-36 72l126 71h86v-342h-98zM190 0l406 630h107l-406 -630h-107zM591 1v45q0 35 26 66t57 49t57 38.5t26 37.5q0 33 -39 33q-41 0 -97 -35l-36 70q69 48 145 48q63 0 95.5 -29.5t32.5 -76.5q0 -43 -26 -70.5t-69 -52t-61 -43.5h157v-80h-268z" />
    <glyph glyph-name="threequarters" unicode="&#xbe;" horiz-adv-x="925" 
d="M70 327l44 68q40 -32 88 -32q54 0 54 41q0 42 -66 42q-26 0 -49 -7l-16 35l106 84h-133v79h240v-76l-77 -61q91 -17 91 -106q0 -48 -40.5 -78.5t-108.5 -30.5q-79 0 -133 42zM228 0l406 630h107l-406 -630h-107zM553 61v71l172 211h96v-211h41v-71h-41v-60h-87v60h-181z
M631 132h103v122z" />
    <glyph glyph-name="questiondown" unicode="&#xbf;" horiz-adv-x="512" 
d="M229 331v138h143v-138h-143zM411 -47l78 -70q-8 -11 -21 -23.5t-39 -31.5t-66.5 -31t-88.5 -12q-94 0 -150 50.5t-56 122.5q0 54 20.5 89t67.5 69q36 26 49.5 37.5t24.5 33t11 51.5v22h120v-22q0 -50 -16 -92.5t-67 -78.5q-27 -18 -43.5 -31t-31.5 -34t-15 -41
q0 -31 23.5 -50t63.5 -19q75 0 136 61z" />
    <glyph glyph-name="Agrave" unicode="&#xc0;" horiz-adv-x="646" 
d="M5 0l253 667h130l253 -667h-140l-58 169h-248l-58 -169h-132zM230 273h177l-88 259zM293 717l-114 156h146l73 -156h-105z" />
    <glyph glyph-name="Aacute" unicode="&#xc1;" horiz-adv-x="646" 
d="M5 0l253 667h130l253 -667h-140l-58 169h-248l-58 -169h-132zM230 273h177l-88 259zM265 717l73 156h146l-114 -156h-105z" />
    <glyph glyph-name="Acircumflex" unicode="&#xc2;" horiz-adv-x="646" 
d="M5 0l253 667h130l253 -667h-140l-58 169h-248l-58 -169h-132zM230 273h177l-88 259zM157 717l110 156h111l110 -156h-104l-62 82l-61 -82h-104z" />
    <glyph glyph-name="Atilde" unicode="&#xc3;" horiz-adv-x="646" 
d="M5 0l253 667h130l253 -667h-140l-58 169h-248l-58 -169h-132zM230 273h177l-88 259zM170 729l-49 75q61 61 128 61q30 0 68.5 -21t66.5 -21q45 0 92 37l49 -75q-63 -63 -127 -63q-29 0 -68.5 22t-67.5 22q-45 0 -92 -37z" />
    <glyph glyph-name="Adieresis" unicode="&#xc4;" horiz-adv-x="646" 
d="M5 0l253 667h130l253 -667h-140l-58 169h-248l-58 -169h-132zM230 273h177l-88 259zM367 737v117h123v-117h-123zM154 737v117h123v-117h-123z" />
    <glyph glyph-name="Aring" unicode="&#xc5;" horiz-adv-x="646" 
d="M5 0l246 649q-58 38 -58 107q0 56 38 92t93 36q56 0 94 -36t38 -91q0 -71 -61 -109l246 -648h-140l-58 169h-248l-58 -169h-132zM230 273h177l-88 259zM325 704q23 0 36.5 14.5t13.5 38.5t-13.5 38t-37.5 14q-23 0 -36.5 -14.5t-13.5 -38.5t13.5 -38t37.5 -14z" />
    <glyph glyph-name="AE" unicode="&#xc6;" horiz-adv-x="954" 
d="M0 0l383 667h505v-111h-308v-157h227v-112h-227v-174h331v-113h-455v169h-230l-97 -169h-129zM285 272h171v298z" />
    <glyph glyph-name="Ccedilla" unicode="&#xc7;" horiz-adv-x="680" 
d="M569 198l88 -76q-34 -52 -110 -95t-164 -43q-149 0 -244 98t-95 248q0 148 96.5 250.5t246.5 102.5q175 0 270 -134l-89 -79q-72 102 -181 102q-95 0 -153 -69.5t-58 -169.5q0 -98 57 -164t148 -66q33 0 59.5 5.5t49 20t32 21t28.5 27.5zM251 -217l13 69q33 -12 70 -12
q56 0 56 30q0 29 -52 29q-37 0 -64 -11l11 68q41 12 85 12q54 0 85.5 -25.5t31.5 -67.5q0 -50 -39.5 -78t-93.5 -28q-42 0 -75 7q-18 3 -28 7z" />
    <glyph glyph-name="Egrave" unicode="&#xc8;" horiz-adv-x="568" 
d="M70 0v667h432v-111h-306v-157h225v-112h-225v-174h329v-113h-455zM264 717l-114 156h146l73 -156h-105z" />
    <glyph glyph-name="Eacute" unicode="&#xc9;" horiz-adv-x="568" 
d="M70 0v667h432v-111h-306v-157h225v-112h-225v-174h329v-113h-455zM230 717l73 156h146l-114 -156h-105z" />
    <glyph glyph-name="Ecircumflex" unicode="&#xca;" horiz-adv-x="568" 
d="M70 0v667h432v-111h-306v-157h225v-112h-225v-174h329v-113h-455zM120 717l110 156h111l110 -156h-104l-62 82l-61 -82h-104z" />
    <glyph glyph-name="Edieresis" unicode="&#xcb;" horiz-adv-x="568" 
d="M70 0v667h432v-111h-306v-157h225v-112h-225v-174h329v-113h-455zM330 737v117h123v-117h-123zM117 737v117h123v-117h-123z" />
    <glyph glyph-name="Igrave" unicode="&#xcc;" horiz-adv-x="266" 
d="M70 0v667h126v-667h-126zM92 717l-114 156h146l73 -156h-105z" />
    <glyph glyph-name="Iacute" unicode="&#xcd;" horiz-adv-x="266" 
d="M70 0v667h126v-667h-126zM70 717l73 156h146l-114 -156h-105z" />
    <glyph glyph-name="Icircumflex" unicode="&#xce;" horiz-adv-x="266" 
d="M70 0v667h126v-667h-126zM-32 717l110 156h111l110 -156h-104l-62 82l-61 -82h-104z" />
    <glyph glyph-name="Idieresis" unicode="&#xcf;" horiz-adv-x="266" 
d="M70 0v667h126v-667h-126zM178 737v117h123v-117h-123zM-35 737v117h123v-117h-123z" />
    <glyph glyph-name="Eth" unicode="&#xd0;" horiz-adv-x="726" 
d="M70 0v287h-67v102h67v278h249q163 0 258.5 -84t95.5 -253q0 -160 -97.5 -245t-257.5 -85h-248zM196 113h114q114 0 174 55t60 161q0 227 -234 227h-114v-167h155v-102h-155v-174z" />
    <glyph glyph-name="Ntilde" unicode="&#xd1;" horiz-adv-x="713" 
d="M70 0v667h127l323 -474v474h123v-667h-124l-326 480v-480h-123zM183 729l-49 75q61 61 128 61q30 0 68.5 -21t66.5 -21q45 0 92 37l49 -75q-63 -63 -127 -63q-29 0 -68.5 22t-67.5 22q-45 0 -92 -37z" />
    <glyph glyph-name="Ograve" unicode="&#xd2;" horiz-adv-x="782" 
d="M391 -18q-145 0 -246 102.5t-101 249.5t100.5 249t246.5 102q145 0 246 -102.5t101 -248.5q0 -147 -101 -249.5t-246 -102.5zM391 101q96 0 155.5 69t59.5 167q0 99 -59 166.5t-156 67.5t-156 -67.5t-59 -166.5q0 -98 59.5 -167t155.5 -69zM360 717l-114 156h146l73 -156
h-105z" />
    <glyph glyph-name="Oacute" unicode="&#xd3;" horiz-adv-x="782" 
d="M391 -18q-145 0 -246 102.5t-101 249.5t100.5 249t246.5 102q145 0 246 -102.5t101 -248.5q0 -147 -101 -249.5t-246 -102.5zM391 101q96 0 155.5 69t59.5 167q0 99 -59 166.5t-156 67.5t-156 -67.5t-59 -166.5q0 -98 59.5 -167t155.5 -69zM328 717l73 156h146l-114 -156
h-105z" />
    <glyph glyph-name="Ocircumflex" unicode="&#xd4;" horiz-adv-x="782" 
d="M391 -18q-145 0 -246 102.5t-101 249.5t100.5 249t246.5 102q145 0 246 -102.5t101 -248.5q0 -147 -101 -249.5t-246 -102.5zM391 101q96 0 155.5 69t59.5 167q0 99 -59 166.5t-156 67.5t-156 -67.5t-59 -166.5q0 -98 59.5 -167t155.5 -69zM226 717l110 156h111l110 -156
h-104l-62 82l-61 -82h-104z" />
    <glyph glyph-name="Otilde" unicode="&#xd5;" horiz-adv-x="782" 
d="M391 -18q-145 0 -246 102.5t-101 249.5t100.5 249t246.5 102q145 0 246 -102.5t101 -248.5q0 -147 -101 -249.5t-246 -102.5zM391 101q96 0 155.5 69t59.5 167q0 99 -59 166.5t-156 67.5t-156 -67.5t-59 -166.5q0 -98 59.5 -167t155.5 -69zM239 729l-49 75q61 61 128 61
q30 0 68.5 -21t66.5 -21q45 0 92 37l49 -75q-63 -63 -127 -63q-29 0 -68.5 22t-67.5 22q-45 0 -92 -37z" />
    <glyph glyph-name="Odieresis" unicode="&#xd6;" horiz-adv-x="782" 
d="M391 -18q-145 0 -246 102.5t-101 249.5t100.5 249t246.5 102q145 0 246 -102.5t101 -248.5q0 -147 -101 -249.5t-246 -102.5zM391 101q96 0 155.5 69t59.5 167q0 99 -59 166.5t-156 67.5t-156 -67.5t-59 -166.5q0 -98 59.5 -167t155.5 -69zM436 737v117h123v-117h-123z
M223 737v117h123v-117h-123z" />
    <glyph glyph-name="multiply" unicode="&#xd7;" horiz-adv-x="545" 
d="M91 208l113 113l-111 112l69 69l112 -111l113 113l68 -69l-113 -113l111 -111l-69 -69l-111 111l-113 -113z" />
    <glyph glyph-name="Oslash" unicode="&#xd8;" horiz-adv-x="782" 
d="M80 -11l66 95q-102 102 -102 250q0 147 100.5 249t246.5 102q81 0 150 -34l58 82l89 -56l-60 -86q110 -104 110 -257q0 -147 -101 -249.5t-246 -102.5q-83 0 -161 39l-61 -88zM557 490l-257 -369q42 -20 91 -20q96 0 155.5 69t59.5 167q0 85 -49 153zM220 189l254 366
q-39 16 -83 16q-97 0 -156 -67.5t-59 -166.5q0 -86 44 -148z" />
    <glyph glyph-name="Ugrave" unicode="&#xd9;" horiz-adv-x="674" 
d="M65 246v421h126v-399q0 -80 34 -122.5t112 -42.5t112 42.5t34 122.5v399h126v-421q0 -115 -73 -189.5t-199 -74.5t-199 74.5t-73 189.5zM313 717l-114 156h146l73 -156h-105z" />
    <glyph glyph-name="Uacute" unicode="&#xda;" horiz-adv-x="674" 
d="M65 246v421h126v-399q0 -80 34 -122.5t112 -42.5t112 42.5t34 122.5v399h126v-421q0 -115 -73 -189.5t-199 -74.5t-199 74.5t-73 189.5zM278 717l73 156h146l-114 -156h-105z" />
    <glyph glyph-name="Ucircumflex" unicode="&#xdb;" horiz-adv-x="674" 
d="M65 246v421h126v-399q0 -80 34 -122.5t112 -42.5t112 42.5t34 122.5v399h126v-421q0 -115 -73 -189.5t-199 -74.5t-199 74.5t-73 189.5zM173 717l110 156h111l110 -156h-104l-62 82l-61 -82h-104z" />
    <glyph glyph-name="Udieresis" unicode="&#xdc;" horiz-adv-x="674" 
d="M65 246v421h126v-399q0 -80 34 -122.5t112 -42.5t112 42.5t34 122.5v399h126v-421q0 -115 -73 -189.5t-199 -74.5t-199 74.5t-73 189.5zM382 737v117h123v-117h-123zM169 737v117h123v-117h-123z" />
    <glyph glyph-name="Yacute" unicode="&#xdd;" horiz-adv-x="600" 
d="M236 0v293l-231 374h138l160 -266l160 266h132l-231 -374v-293h-128zM248 717l73 156h146l-114 -156h-105z" />
    <glyph glyph-name="Thorn" unicode="&#xde;" horiz-adv-x="558" 
d="M70 0v667h121v-114h93q66 0 114 -21t72 -54.5t34.5 -66.5t10.5 -66q0 -54 -20 -95.5t-52.5 -66t-71 -37t-79.5 -12.5h-101v-134h-121zM191 240h91q48 0 76.5 28t28.5 73q0 47 -30 76.5t-75 29.5h-91v-207z" />
    <glyph glyph-name="germandbls" unicode="&#xdf;" horiz-adv-x="604" 
d="M58 0v474q0 113 59.5 161.5t169.5 48.5q78 0 134 -42t56 -110q0 -34 -17.5 -66.5t-38.5 -52t-38.5 -42t-17.5 -38.5q0 -31 77 -49q64 -15 95 -49t31 -98q0 -69 -49 -108.5t-136 -39.5q-101 0 -166 57l71 82q44 -39 91 -39q40 0 57.5 9.5t17.5 32.5q0 24 -16 38.5
t-70 31.5q-28 9 -45 16.5t-36.5 22.5t-28.5 38t-9 56q0 35 26.5 70.5t53 63.5t26.5 46q0 31 -20 50t-60 19q-99 0 -99 -114v-469h-118z" />
    <glyph glyph-name="agrave" unicode="&#xe0;" horiz-adv-x="504" 
d="M338 0l-3 44q-20 -25 -59.5 -42t-85.5 -17q-64 0 -113 39.5t-49 112.5q0 80 56 124t150 44q22 0 64 -2l37 -2v11q0 35 -27.5 55t-73.5 20q-69 0 -133 -41l-54 80q83 59 203 59q89 0 143.5 -47t54.5 -123v-315h-110zM335 166v46l-35 2q-38 2 -56 2q-53 0 -78 -21t-25 -53
q0 -64 85 -64q42 0 75.5 26.5t33.5 61.5zM213 540l-79 142h126l48 -142h-95z" />
    <glyph glyph-name="aacute" unicode="&#xe1;" horiz-adv-x="504" 
d="M199 540l48 142h126l-79 -142h-95zM338 0l-3 44q-20 -25 -59.5 -42t-85.5 -17q-64 0 -113 39.5t-49 112.5q0 80 56 124t150 44q22 0 64 -2l37 -2v11q0 35 -27.5 55t-73.5 20q-69 0 -133 -41l-54 80q83 59 203 59q89 0 143.5 -47t54.5 -123v-315h-110zM335 166v46l-35 2
q-38 2 -56 2q-53 0 -78 -21t-25 -53q0 -64 85 -64q42 0 75.5 26.5t33.5 61.5z" />
    <glyph glyph-name="acircumflex" unicode="&#xe2;" horiz-adv-x="504" 
d="M84 540l104 142h111l104 -142h-104l-56 76l-55 -76h-104zM338 0l-3 44q-20 -25 -59.5 -42t-85.5 -17q-64 0 -113 39.5t-49 112.5q0 80 56 124t150 44q22 0 64 -2l37 -2v11q0 35 -27.5 55t-73.5 20q-69 0 -133 -41l-54 80q83 59 203 59q89 0 143.5 -47t54.5 -123v-315
h-110zM335 166v46l-35 2q-38 2 -56 2q-53 0 -78 -21t-25 -53q0 -64 85 -64q42 0 75.5 26.5t33.5 61.5z" />
    <glyph glyph-name="atilde" unicode="&#xe3;" horiz-adv-x="504" 
d="M338 0l-3 44q-20 -25 -59.5 -42t-85.5 -17q-64 0 -113 39.5t-49 112.5q0 80 56 124t150 44q22 0 64 -2l37 -2v11q0 35 -27.5 55t-73.5 20q-69 0 -133 -41l-54 80q83 59 203 59q89 0 143.5 -47t54.5 -123v-315h-110zM335 166v46l-35 2q-38 2 -56 2q-53 0 -78 -21t-25 -53
q0 -64 85 -64q42 0 75.5 26.5t33.5 61.5zM94 545l-45 70q20 22 52.5 40t68.5 18q28 0 65 -20.5t64 -20.5q13 0 24 2t21.5 7t15.5 8t15.5 10.5t11.5 8.5l45 -70q-55 -60 -120 -60q-28 0 -65.5 21.5t-64.5 21.5q-13 0 -24 -2t-21.5 -7t-15.5 -8t-15.5 -10.5t-11.5 -8.5z" />
    <glyph glyph-name="adieresis" unicode="&#xe4;" horiz-adv-x="504" 
d="M290 557v109h115v-109h-115zM105 557v109h115v-109h-115zM338 0l-3 44q-20 -25 -59.5 -42t-85.5 -17q-64 0 -113 39.5t-49 112.5q0 80 56 124t150 44q22 0 64 -2l37 -2v11q0 35 -27.5 55t-73.5 20q-69 0 -133 -41l-54 80q83 59 203 59q89 0 143.5 -47t54.5 -123v-315
h-110zM335 166v46l-35 2q-38 2 -56 2q-53 0 -78 -21t-25 -53q0 -64 85 -64q42 0 75.5 26.5t33.5 61.5z" />
    <glyph glyph-name="aring" unicode="&#xe5;" horiz-adv-x="504" 
d="M137 644q0 48 34 80.5t83 32.5t83.5 -32.5t34.5 -79.5q0 -48 -34 -80.5t-83 -32.5t-83.5 32.5t-34.5 79.5zM254 600q19 0 31.5 12.5t12.5 31.5q0 18 -12.5 30.5t-30.5 12.5q-19 0 -31.5 -12.5t-12.5 -30.5q0 -19 12.5 -31.5t30.5 -12.5zM338 0l-3 44q-20 -25 -59.5 -42
t-85.5 -17q-64 0 -113 39.5t-49 112.5q0 80 56 124t150 44q22 0 64 -2l37 -2v11q0 35 -27.5 55t-73.5 20q-69 0 -133 -41l-54 80q83 59 203 59q89 0 143.5 -47t54.5 -123v-315h-110zM335 166v46l-35 2q-38 2 -56 2q-53 0 -78 -21t-25 -53q0 -64 85 -64q42 0 75.5 26.5
t33.5 61.5z" />
    <glyph glyph-name="ae" unicode="&#xe6;" horiz-adv-x="831" 
d="M101 346l-54 80q76 59 195 59q110 0 166 -66q58 66 159 66q62 0 108.5 -23t72 -62.5t38 -85.5t12.5 -98v-17h-350q0 -49 40.5 -81.5t89.5 -32.5q95 0 150 55l64 -72l-2 -2q-75 -82 -213 -82q-116 0 -187 82q-36 -44 -79 -62.5t-108 -18.5q-74 0 -124.5 39t-50.5 113
q0 78 55.5 118.5t150.5 40.5q16 0 40 -1t42 -2t19 -1v20q0 35 -26 55t-69 20q-75 0 -139 -41zM335 166v37q-3 0 -39 2t-52 2q-52 0 -79 -17.5t-27 -47.5t23 -47t65 -17q48 0 78.5 25.5t30.5 62.5zM447 284h230q0 39 -29.5 70.5t-80.5 31.5q-54 0 -87 -31.5t-33 -70.5z" />
    <glyph glyph-name="ccedilla" unicode="&#xe7;" horiz-adv-x="492" 
d="M401 138l70 -76q-72 -77 -183 -77q-118 0 -185 68t-67 182q0 104 71 177t181 73q113 0 184 -76l-75 -76q-43 49 -109 49q-65 0 -99 -42.5t-34 -104.5q0 -59 34.5 -103t98.5 -44q69 0 113 50zM150 -217l13 67q33 -12 69 -12q58 0 58 32q0 30 -54 30q-36 0 -63 -11l11 67
q41 12 84 12q53 0 84 -25.5t31 -67.5q0 -50 -38.5 -78t-92.5 -28q-42 0 -75 7q-19 3 -27 7z" />
    <glyph glyph-name="egrave" unicode="&#xe8;" horiz-adv-x="538" 
d="M435 140l64 -72l-2 -2q-75 -82 -213 -82q-112 0 -180 71t-68 185q0 105 67 175t171 70q62 0 108.5 -23t72 -62.5t38 -85.5t12.5 -98v-17h-350q0 -49 40.5 -81.5t89.5 -32.5q95 0 150 55zM154 284h230q0 39 -29.5 70.5t-80.5 31.5q-54 0 -87 -31.5t-33 -70.5zM238 540
l-79 142h126l48 -142h-95z" />
    <glyph glyph-name="eacute" unicode="&#xe9;" horiz-adv-x="538" 
d="M435 140l64 -72l-2 -2q-75 -82 -213 -82q-112 0 -180 71t-68 185q0 105 67 175t171 70q62 0 108.5 -23t72 -62.5t38 -85.5t12.5 -98v-17h-350q0 -49 40.5 -81.5t89.5 -32.5q95 0 150 55zM154 284h230q0 39 -29.5 70.5t-80.5 31.5q-54 0 -87 -31.5t-33 -70.5zM226 540
l48 142h126l-79 -142h-95z" />
    <glyph glyph-name="ecircumflex" unicode="&#xea;" horiz-adv-x="538" 
d="M435 140l64 -72l-2 -2q-75 -82 -213 -82q-112 0 -180 71t-68 185q0 105 67 175t171 70q62 0 108.5 -23t72 -62.5t38 -85.5t12.5 -98v-17h-350q0 -49 40.5 -81.5t89.5 -32.5q95 0 150 55zM154 284h230q0 39 -29.5 70.5t-80.5 31.5q-54 0 -87 -31.5t-33 -70.5zM111 540
l104 142h111l104 -142h-104l-56 76l-55 -76h-104z" />
    <glyph glyph-name="edieresis" unicode="&#xeb;" horiz-adv-x="538" 
d="M435 140l64 -72l-2 -2q-75 -82 -213 -82q-112 0 -180 71t-68 185q0 105 67 175t171 70q62 0 108.5 -23t72 -62.5t38 -85.5t12.5 -98v-17h-350q0 -49 40.5 -81.5t89.5 -32.5q95 0 150 55zM154 284h230q0 39 -29.5 70.5t-80.5 31.5q-54 0 -87 -31.5t-33 -70.5zM305 557v109
h115v-109h-115zM120 557v109h115v-109h-115z" />
    <glyph glyph-name="igrave" unicode="&#xec;" horiz-adv-x="244" 
d="M75 540l-79 142h126l48 -142h-95zM63 0v469h118v-469h-118z" />
    <glyph glyph-name="iacute" unicode="&#xed;" horiz-adv-x="244" 
d="M74 540l48 142h126l-79 -142h-95zM63 0v469h118v-469h-118z" />
    <glyph glyph-name="icircumflex" unicode="&#xee;" horiz-adv-x="244" 
d="M-36 540l104 142h111l104 -142h-104l-56 76l-55 -76h-104zM63 0v469h118v-469h-118z" />
    <glyph glyph-name="idieresis" unicode="&#xef;" horiz-adv-x="244" 
d="M158 557v109h115v-109h-115zM-27 557v109h115v-109h-115zM63 0v469h118v-469h-118z" />
    <glyph glyph-name="eth" unicode="&#xf0;" horiz-adv-x="555" 
d="M158 518l39 59q-36 9 -80 12l14 88q67 -4 121 -18l43 64l64 -38l-35 -53q195 -93 195 -362q0 -140 -70.5 -213t-179.5 -73q-97 0 -165 62.5t-68 173.5q0 97 67 166.5t168 69.5q60 0 104 -18q-32 73 -106 112l-47 -70zM393 328q-48 28 -99 28q-62 0 -100.5 -37t-38.5 -99
q0 -60 34 -97t87 -37q51 0 88.5 46.5t37.5 135.5q0 33 -9 60z" />
    <glyph glyph-name="ntilde" unicode="&#xf1;" horiz-adv-x="551" 
d="M58 0v469h113l3 -53q58 63 141 63q87 0 133.5 -51.5t46.5 -142.5v-285h-118v284q0 44 -24 69t-64 25q-48 0 -80.5 -36t-32.5 -88v-254h-118zM132 545l-45 70q20 22 52.5 40t68.5 18q28 0 65 -20.5t64 -20.5q13 0 24 2t21.5 7t15.5 8t15.5 10.5t11.5 8.5l45 -70
q-55 -60 -120 -60q-28 0 -65.5 21.5t-64.5 21.5q-13 0 -24 -2t-21.5 -7t-15.5 -8t-15.5 -10.5t-11.5 -8.5z" />
    <glyph glyph-name="ograve" unicode="&#xf2;" horiz-adv-x="576" 
d="M36 235q0 104 71 177t181 73t181 -73t71 -177t-71 -177.5t-181 -73.5t-181 73.5t-71 177.5zM288 86q63 0 98 46t35 103t-35 102.5t-98 45.5t-98 -45.5t-35 -102.5t35 -103t98 -46zM253 540l-79 142h126l48 -142h-95z" />
    <glyph glyph-name="oacute" unicode="&#xf3;" horiz-adv-x="576" 
d="M36 235q0 104 71 177t181 73t181 -73t71 -177t-71 -177.5t-181 -73.5t-181 73.5t-71 177.5zM288 86q63 0 98 46t35 103t-35 102.5t-98 45.5t-98 -45.5t-35 -102.5t35 -103t98 -46zM236 540l48 142h126l-79 -142h-95z" />
    <glyph glyph-name="ocircumflex" unicode="&#xf4;" horiz-adv-x="576" 
d="M36 235q0 104 71 177t181 73t181 -73t71 -177t-71 -177.5t-181 -73.5t-181 73.5t-71 177.5zM288 86q63 0 98 46t35 103t-35 102.5t-98 45.5t-98 -45.5t-35 -102.5t35 -103t98 -46zM129 540l104 142h111l104 -142h-104l-56 76l-55 -76h-104z" />
    <glyph glyph-name="otilde" unicode="&#xf5;" horiz-adv-x="576" 
d="M36 235q0 104 71 177t181 73t181 -73t71 -177t-71 -177.5t-181 -73.5t-181 73.5t-71 177.5zM288 86q63 0 98 46t35 103t-35 102.5t-98 45.5t-98 -45.5t-35 -102.5t35 -103t98 -46zM144 545l-45 70q20 22 52.5 40t68.5 18q28 0 65 -20.5t64 -20.5q13 0 24 2t21.5 7t15.5 8
t15.5 10.5t11.5 8.5l45 -70q-55 -60 -120 -60q-28 0 -65.5 21.5t-64.5 21.5q-13 0 -24 -2t-21.5 -7t-15.5 -8t-15.5 -10.5t-11.5 -8.5z" />
    <glyph glyph-name="odieresis" unicode="&#xf6;" horiz-adv-x="576" 
d="M36 235q0 104 71 177t181 73t181 -73t71 -177t-71 -177.5t-181 -73.5t-181 73.5t-71 177.5zM288 86q63 0 98 46t35 103t-35 102.5t-98 45.5t-98 -45.5t-35 -102.5t35 -103t98 -46zM324 557v109h115v-109h-115zM139 557v109h115v-109h-115z" />
    <glyph glyph-name="divide" unicode="&#xf7;" horiz-adv-x="543" 
d="M72 272v99h398v-99h-398zM218 114v100h106v-100h-106zM218 430v100h106v-100h-106z" />
    <glyph glyph-name="oslash" unicode="&#xf8;" horiz-adv-x="576" 
d="M66 -13l45 66q-75 73 -75 182q0 104 71 177t181 73q56 0 107 -23l47 68l73 -45l-49 -71q74 -74 74 -179q0 -104 -71 -177.5t-181 -73.5q-56 0 -106 21l-44 -63zM178 149l156 226q-24 8 -46 8q-63 0 -98 -45.5t-35 -102.5q0 -47 23 -86zM399 318l-156 -225q17 -7 45 -7
q63 0 98 46t35 103q0 43 -22 83z" />
    <glyph glyph-name="ugrave" unicode="&#xf9;" horiz-adv-x="551" 
d="M56 184v285h118v-284q0 -44 24 -69t64 -25q48 0 80.5 36t32.5 88v254h118v-469h-113l-3 53q-56 -63 -141 -63q-87 0 -133.5 51.5t-46.5 142.5zM238 540l-79 142h126l48 -142h-95z" />
    <glyph glyph-name="uacute" unicode="&#xfa;" horiz-adv-x="551" 
d="M56 184v285h118v-284q0 -44 24 -69t64 -25q48 0 80.5 36t32.5 88v254h118v-469h-113l-3 53q-56 -63 -141 -63q-87 0 -133.5 51.5t-46.5 142.5zM222 540l48 142h126l-79 -142h-95z" />
    <glyph glyph-name="ucircumflex" unicode="&#xfb;" horiz-adv-x="551" 
d="M56 184v285h118v-284q0 -44 24 -69t64 -25q48 0 80.5 36t32.5 88v254h118v-469h-113l-3 53q-56 -63 -141 -63q-87 0 -133.5 51.5t-46.5 142.5zM117 540l104 142h111l104 -142h-104l-56 76l-55 -76h-104z" />
    <glyph glyph-name="udieresis" unicode="&#xfc;" horiz-adv-x="551" 
d="M56 184v285h118v-284q0 -44 24 -69t64 -25q48 0 80.5 36t32.5 88v254h118v-469h-113l-3 53q-56 -63 -141 -63q-87 0 -133.5 51.5t-46.5 142.5zM315 557v109h115v-109h-115zM130 557v109h115v-109h-115z" />
    <glyph glyph-name="yacute" unicode="&#xfd;" horiz-adv-x="527" 
d="M24 -176l53 83q27 -23 52 -23q23 0 38.5 18.5t33.5 63.5l15 38l-211 465h136l134 -321l118 321h129l-196 -469q-3 -9 -15 -40t-17.5 -43t-18.5 -38t-24.5 -37.5t-28.5 -26.5t-38.5 -21t-46.5 -6q-71 0 -113 36zM222 540l48 142h126l-79 -142h-95z" />
    <glyph glyph-name="thorn" unicode="&#xfe;" horiz-adv-x="571" 
d="M58 -202v869h117v-246q21 23 60 40t89 17q102 0 156.5 -70.5t54.5 -171.5q0 -99 -56 -167q-70 -85 -185 -85q-11 0 -21.5 0.5t-18 1.5t-16.5 2.5t-13.5 3t-13 4t-11.5 4t-12.5 5t-12.5 4.5v-211h-117zM175 254v-139q35 -29 106 -29q62 0 98.5 43.5t36.5 106.5
q0 140 -122 140q-51 0 -85 -39.5t-34 -82.5z" />
    <glyph glyph-name="ydieresis" unicode="&#xff;" horiz-adv-x="527" 
d="M24 -176l53 83q27 -23 52 -23q23 0 38.5 18.5t33.5 63.5l15 38l-211 465h136l134 -321l118 321h129l-196 -469q-3 -9 -15 -40t-17.5 -43t-18.5 -38t-24.5 -37.5t-28.5 -26.5t-38.5 -21t-46.5 -6q-71 0 -113 36zM304 557v109h115v-109h-115zM119 557v109h115v-109h-115z
" />
    <glyph glyph-name="Amacron" unicode="&#x100;" horiz-adv-x="646" 
d="M5 0l253 667h130l253 -667h-140l-58 169h-248l-58 -169h-132zM230 273h177l-88 259zM166 747v97h315v-97h-315z" />
    <glyph glyph-name="amacron" unicode="&#x101;" horiz-adv-x="504" 
d="M128 558v92h261v-92h-261zM338 0l-3 44q-20 -25 -59.5 -42t-85.5 -17q-64 0 -113 39.5t-49 112.5q0 80 56 124t150 44q22 0 64 -2l37 -2v11q0 35 -27.5 55t-73.5 20q-69 0 -133 -41l-54 80q83 59 203 59q89 0 143.5 -47t54.5 -123v-315h-110zM335 166v46l-35 2
q-38 2 -56 2q-53 0 -78 -21t-25 -53q0 -64 85 -64q42 0 75.5 26.5t33.5 61.5z" />
    <glyph glyph-name="Abreve" unicode="&#x102;" horiz-adv-x="646" 
d="M5 0l253 667h130l253 -667h-140l-58 169h-248l-58 -169h-132zM230 273h177l-88 259zM162 863h93q0 -28 18 -47.5t49 -19.5t49 19.5t18 47.5h93q0 -62 -41.5 -105.5t-118.5 -43.5t-118.5 43.5t-41.5 105.5z" />
    <glyph glyph-name="abreve" unicode="&#x103;" horiz-adv-x="504" 
d="M89 682h92q0 -27 14.5 -46t47.5 -19t47.5 19t14.5 46h92q0 -58 -41 -100t-113 -42t-113 42t-41 100zM338 0l-3 44q-20 -25 -59.5 -42t-85.5 -17q-64 0 -113 39.5t-49 112.5q0 80 56 124t150 44q22 0 64 -2l37 -2v11q0 35 -27.5 55t-73.5 20q-69 0 -133 -41l-54 80
q83 59 203 59q89 0 143.5 -47t54.5 -123v-315h-110zM335 166v46l-35 2q-38 2 -56 2q-53 0 -78 -21t-25 -53q0 -64 85 -64q42 0 75.5 26.5t33.5 61.5z" />
    <glyph glyph-name="Aogonek" unicode="&#x104;" horiz-adv-x="646" 
d="M5 0l253 667h130l253 -667q-47 -47 -47 -82q0 -21 26 -21q25 0 50 17l29 -75q-56 -37 -113 -37q-50 0 -75.5 21.5t-25.5 58.5q0 53 63 118h-47l-58 169h-248l-58 -169h-132zM230 273h177l-88 259z" />
    <glyph glyph-name="aogonek" unicode="&#x105;" horiz-adv-x="504" 
d="M338 0l-3 44q-20 -25 -59.5 -42t-85.5 -17q-64 0 -113 39.5t-49 112.5q0 80 56 124t150 44q22 0 64 -2l37 -2v11q0 35 -27.5 55t-73.5 20q-69 0 -133 -41l-54 80q83 59 203 59q89 0 143.5 -47t54.5 -123v-315q-52 -50 -52 -80q0 -21 25 -21q26 0 55 19l28 -74
q-52 -36 -110 -36q-98 0 -98 78q0 49 61 114h-19zM335 166v46l-35 2q-38 2 -56 2q-53 0 -78 -21t-25 -53q0 -64 85 -64q42 0 75.5 26.5t33.5 61.5z" />
    <glyph glyph-name="Cacute" unicode="&#x106;" horiz-adv-x="680" 
d="M569 198l88 -76q-34 -52 -110 -95t-164 -43q-149 0 -244 98t-95 248q0 148 96.5 250.5t246.5 102.5q175 0 270 -134l-89 -79q-72 102 -181 102q-95 0 -153 -69.5t-58 -169.5q0 -98 57 -164t148 -66q33 0 59.5 5.5t49 20t32 21t28.5 27.5zM319 717l73 156h146l-114 -156
h-105z" />
    <glyph glyph-name="cacute" unicode="&#x107;" horiz-adv-x="492" 
d="M401 138l70 -76q-72 -77 -183 -77q-118 0 -185 68t-67 182q0 104 71 177t181 73q113 0 184 -76l-75 -76q-43 49 -109 49q-65 0 -99 -42.5t-34 -104.5q0 -59 34.5 -103t98.5 -44q69 0 113 50zM226 540l48 142h126l-79 -142h-95z" />
    <glyph glyph-name="Ccircumflex" unicode="&#x108;" horiz-adv-x="680" 
d="M569 198l88 -76q-34 -52 -110 -95t-164 -43q-149 0 -244 98t-95 248q0 148 96.5 250.5t246.5 102.5q175 0 270 -134l-89 -79q-72 102 -181 102q-95 0 -153 -69.5t-58 -169.5q0 -98 57 -164t148 -66q33 0 59.5 5.5t49 20t32 21t28.5 27.5zM222 717l110 156h111l110 -156
h-104l-62 82l-61 -82h-104z" />
    <glyph glyph-name="ccircumflex" unicode="&#x109;" horiz-adv-x="492" 
d="M401 138l70 -76q-72 -77 -183 -77q-118 0 -185 68t-67 182q0 104 71 177t181 73q113 0 184 -76l-75 -76q-43 49 -109 49q-65 0 -99 -42.5t-34 -104.5q0 -59 34.5 -103t98.5 -44q69 0 113 50zM127 540l104 142h111l104 -142h-104l-56 76l-55 -76h-104z" />
    <glyph glyph-name="Cdotaccent" unicode="&#x10a;" horiz-adv-x="680" 
d="M569 198l88 -76q-34 -52 -110 -95t-164 -43q-149 0 -244 98t-95 248q0 148 96.5 250.5t246.5 102.5q175 0 270 -134l-89 -79q-72 102 -181 102q-95 0 -153 -69.5t-58 -169.5q0 -98 57 -164t148 -66q33 0 59.5 5.5t49 20t32 21t28.5 27.5zM314 734v123h129v-123h-129z" />
    <glyph glyph-name="cdotaccent" unicode="&#x10b;" horiz-adv-x="492" 
d="M401 138l70 -76q-72 -77 -183 -77q-118 0 -185 68t-67 182q0 104 71 177t181 73q113 0 184 -76l-75 -76q-43 49 -109 49q-65 0 -99 -42.5t-34 -104.5q0 -59 34.5 -103t98.5 -44q69 0 113 50zM222 553v117h123v-117h-123z" />
    <glyph glyph-name="Ccaron" unicode="&#x10c;" horiz-adv-x="680" 
d="M569 198l88 -76q-34 -52 -110 -95t-164 -43q-149 0 -244 98t-95 248q0 148 96.5 250.5t246.5 102.5q175 0 270 -134l-89 -79q-72 102 -181 102q-95 0 -153 -69.5t-58 -169.5q0 -98 57 -164t148 -66q33 0 59.5 5.5t49 20t32 21t28.5 27.5zM334 717l-110 156h104l62 -82
l61 82h104l-110 -156h-111z" />
    <glyph glyph-name="ccaron" unicode="&#x10d;" horiz-adv-x="492" 
d="M401 138l70 -76q-72 -77 -183 -77q-118 0 -185 68t-67 182q0 104 71 177t181 73q113 0 184 -76l-75 -76q-43 49 -109 49q-65 0 -99 -42.5t-34 -104.5q0 -59 34.5 -103t98.5 -44q69 0 113 50zM228 540l-104 142h104l56 -76l55 76h104l-104 -142h-111z" />
    <glyph glyph-name="Dcaron" unicode="&#x10e;" horiz-adv-x="726" 
d="M70 0v667h249q163 0 258.5 -84t95.5 -253q0 -160 -97.5 -245t-257.5 -85h-248zM196 112h111q114 0 174 55t60 161q0 227 -234 227h-111v-443zM265 717l-110 156h104l62 -82l61 82h104l-110 -156h-111z" />
    <glyph glyph-name="dcaron" unicode="&#x10f;" horiz-adv-x="557" 
d="M385 0l-3 46q-55 -62 -140 -62q-81 0 -143.5 66t-62.5 176q0 99 56 167q36 43 87.5 64.5t92.5 21.5q29 0 50 -3.5t28 -5.5t32 -12v209h117v-667h-114zM382 208v144q-30 25 -97 25q-59 0 -98 -49q-32 -43 -32 -102q0 -62 31 -101t86 -39t82.5 37.5t27.5 84.5zM560 498v169
h110l-34 -169h-76z" />
    <glyph glyph-name="Dcroat" unicode="&#x110;" horiz-adv-x="726" 
d="M70 0v287h-67v102h67v278h249q163 0 258.5 -84t95.5 -253q0 -160 -97.5 -245t-257.5 -85h-248zM196 113h114q114 0 174 55t60 161q0 227 -234 227h-114v-167h155v-102h-155v-174z" />
    <glyph glyph-name="dcroat" unicode="&#x111;" horiz-adv-x="548" 
d="M373 0v46q-55 -62 -140 -62q-82 0 -144 62t-62 172q0 91 56 159q36 43 86.5 62t93.5 19q29 0 50 -3.5t28 -5.5t32 -12v85h-171v79h171v66h117v-66h56v-79h-56v-522h-117zM373 208v123q-38 25 -97 25q-63 0 -98 -44q-32 -43 -32 -94q0 -61 30.5 -96.5t86.5 -35.5
q55 0 82.5 37.5t27.5 84.5z" />
    <glyph glyph-name="Emacron" unicode="&#x112;" horiz-adv-x="568" 
d="M70 0v667h432v-111h-306v-157h225v-112h-225v-174h329v-113h-455zM134 747v97h315v-97h-315z" />
    <glyph glyph-name="emacron" unicode="&#x113;" horiz-adv-x="538" 
d="M435 140l64 -72l-2 -2q-75 -82 -213 -82q-112 0 -180 71t-68 185q0 105 67 175t171 70q62 0 108.5 -23t72 -62.5t38 -85.5t12.5 -98v-17h-350q0 -49 40.5 -81.5t89.5 -32.5q95 0 150 55zM154 284h230q0 39 -29.5 70.5t-80.5 31.5q-54 0 -87 -31.5t-33 -70.5zM142 557v92
h261v-92h-261z" />
    <glyph glyph-name="Ebreve" unicode="&#x114;" horiz-adv-x="568" 
d="M70 0v667h432v-111h-306v-157h225v-112h-225v-174h329v-113h-455zM130 863h93q0 -28 18 -47.5t49 -19.5t49 19.5t18 47.5h93q0 -62 -41.5 -105.5t-118.5 -43.5t-118.5 43.5t-41.5 105.5z" />
    <glyph glyph-name="ebreve" unicode="&#x115;" horiz-adv-x="538" 
d="M435 140l64 -72l-2 -2q-75 -82 -213 -82q-112 0 -180 71t-68 185q0 105 67 175t171 70q62 0 108.5 -23t72 -62.5t38 -85.5t12.5 -98v-17h-350q0 -49 40.5 -81.5t89.5 -32.5q95 0 150 55zM154 284h230q0 39 -29.5 70.5t-80.5 31.5q-54 0 -87 -31.5t-33 -70.5zM124 682h92
q0 -27 14.5 -46t47.5 -19t47.5 19t14.5 46h92q0 -58 -41 -100t-113 -42t-113 42t-41 100z" />
    <glyph glyph-name="Edotaccent" unicode="&#x116;" horiz-adv-x="568" 
d="M70 0v667h432v-111h-306v-157h225v-112h-225v-174h329v-113h-455zM230 734v123h129v-123h-129z" />
    <glyph glyph-name="edotaccent" unicode="&#x117;" horiz-adv-x="538" 
d="M435 140l64 -72l-2 -2q-75 -82 -213 -82q-112 0 -180 71t-68 185q0 105 67 175t171 70q62 0 108.5 -23t72 -62.5t38 -85.5t12.5 -98v-17h-350q0 -49 40.5 -81.5t89.5 -32.5q95 0 150 55zM154 284h230q0 39 -29.5 70.5t-80.5 31.5q-54 0 -87 -31.5t-33 -70.5zM215 553v117
h123v-117h-123z" />
    <glyph glyph-name="Eogonek" unicode="&#x118;" horiz-adv-x="568" 
d="M70 0v667h432v-111h-306v-157h225v-112h-225v-174h329v-113h-58q-47 -47 -47 -82q0 -21 26 -21q25 0 50 17l29 -75q-56 -37 -113 -37q-50 0 -75.5 21.5t-25.5 58.5q0 53 63 118h-304z" />
    <glyph glyph-name="eogonek" unicode="&#x119;" horiz-adv-x="538" 
d="M445 -82l28 -74q-52 -36 -110 -36q-98 0 -98 78q0 45 47 99q-4 0 -14 -0.5t-14 -0.5q-110 0 -179 74t-69 182q0 104 68 174.5t172 70.5q58 0 103.5 -23t72 -62t40 -86t13.5 -98v-17h-350q0 -49 40.5 -81.5t89.5 -32.5q95 0 150 55l64 -72q-14 -14 -58 -47
q-76 -57 -76 -101q0 -21 25 -21q26 0 55 19zM154 284h233q0 39 -29.5 69.5t-80.5 30.5q-52 0 -87.5 -31.5t-35.5 -68.5z" />
    <glyph glyph-name="Ecaron" unicode="&#x11a;" horiz-adv-x="568" 
d="M70 0v667h432v-111h-306v-157h225v-112h-225v-174h329v-113h-455zM240 717l-110 156h104l62 -82l61 82h104l-110 -156h-111z" />
    <glyph glyph-name="ecaron" unicode="&#x11b;" horiz-adv-x="538" 
d="M435 140l64 -72l-2 -2q-75 -82 -213 -82q-112 0 -180 71t-68 185q0 105 67 175t171 70q62 0 108.5 -23t72 -62.5t38 -85.5t12.5 -98v-17h-350q0 -49 40.5 -81.5t89.5 -32.5q95 0 150 55zM154 284h230q0 39 -29.5 70.5t-80.5 31.5q-54 0 -87 -31.5t-33 -70.5zM219 540
l-104 142h104l56 -76l55 76h104l-104 -142h-111z" />
    <glyph glyph-name="Gcircumflex" unicode="&#x11c;" horiz-adv-x="723" 
d="M421 246v107h239v-276q-99 -93 -267 -93q-160 0 -254.5 98t-94.5 248q0 148 96.5 250.5t246.5 102.5q175 0 270 -134l-89 -79q-72 102 -181 102q-95 0 -153 -69.5t-58 -169.5q0 -105 64.5 -170t157.5 -65q92 0 142 44v104h-119zM215 717l110 156h111l110 -156h-104
l-62 82l-61 -82h-104z" />
    <glyph glyph-name="gcircumflex" unicode="&#x11d;" horiz-adv-x="555" 
d="M81 -163l53 87q53 -36 137 -36q47 0 77.5 28.5t30.5 77.5v51q-53 -45 -128 -45q-99 0 -157 63.5t-58 164.5q0 108 72.5 179.5t192.5 71.5q107 0 196 -31v-456q0 -96 -62.5 -150t-161.5 -54q-128 0 -192 49zM379 199v168q-27 10 -76 10q-68 0 -107.5 -42.5t-39.5 -103.5
q0 -57 28.5 -92.5t85.5 -35.5q109 0 109 96zM128 540l104 142h111l104 -142h-104l-56 76l-55 -76h-104z" />
    <glyph glyph-name="Gbreve" unicode="&#x11e;" horiz-adv-x="723" 
d="M421 246v107h239v-276q-99 -93 -267 -93q-160 0 -254.5 98t-94.5 248q0 148 96.5 250.5t246.5 102.5q175 0 270 -134l-89 -79q-72 102 -181 102q-95 0 -153 -69.5t-58 -169.5q0 -105 64.5 -170t157.5 -65q92 0 142 44v104h-119zM219 863h93q0 -28 18 -47.5t49 -19.5
t49 19.5t18 47.5h93q0 -62 -41.5 -105.5t-118.5 -43.5t-118.5 43.5t-41.5 105.5z" />
    <glyph glyph-name="gbreve" unicode="&#x11f;" horiz-adv-x="555" 
d="M81 -163l53 87q53 -36 137 -36q47 0 77.5 28.5t30.5 77.5v51q-53 -45 -128 -45q-99 0 -157 63.5t-58 164.5q0 108 72.5 179.5t192.5 71.5q107 0 196 -31v-456q0 -96 -62.5 -150t-161.5 -54q-128 0 -192 49zM379 199v168q-27 10 -76 10q-68 0 -107.5 -42.5t-39.5 -103.5
q0 -57 28.5 -92.5t85.5 -35.5q109 0 109 96zM145 682h92q0 -27 14.5 -46t47.5 -19t47.5 19t14.5 46h92q0 -58 -41 -100t-113 -42t-113 42t-41 100z" />
    <glyph glyph-name="Gdotaccent" unicode="&#x120;" horiz-adv-x="723" 
d="M421 246v107h239v-276q-99 -93 -267 -93q-160 0 -254.5 98t-94.5 248q0 148 96.5 250.5t246.5 102.5q175 0 270 -134l-89 -79q-72 102 -181 102q-95 0 -153 -69.5t-58 -169.5q0 -105 64.5 -170t157.5 -65q92 0 142 44v104h-119zM318 734v123h129v-123h-129z" />
    <glyph glyph-name="gdotaccent" unicode="&#x121;" horiz-adv-x="555" 
d="M81 -163l53 87q53 -36 137 -36q47 0 77.5 28.5t30.5 77.5v51q-53 -45 -128 -45q-99 0 -157 63.5t-58 164.5q0 108 72.5 179.5t192.5 71.5q107 0 196 -31v-456q0 -96 -62.5 -150t-161.5 -54q-128 0 -192 49zM379 199v168q-27 10 -76 10q-68 0 -107.5 -42.5t-39.5 -103.5
q0 -57 28.5 -92.5t85.5 -35.5q109 0 109 96zM238 553v117h123v-117h-123z" />
    <glyph glyph-name="Gcommaaccent" unicode="&#x122;" horiz-adv-x="723" 
d="M421 246v107h239v-276q-99 -93 -267 -93q-160 0 -254.5 98t-94.5 248q0 148 96.5 250.5t246.5 102.5q175 0 270 -134l-89 -79q-72 102 -181 102q-95 0 -153 -69.5t-58 -169.5q0 -105 64.5 -170t157.5 -65q92 0 142 44v104h-119zM267 -209l53 158h139l-88 -158h-104z" />
    <glyph glyph-name="gcommaaccent" unicode="&#x123;" horiz-adv-x="555" 
d="M81 -163l53 87q53 -36 137 -36q47 0 77.5 28.5t30.5 77.5v51q-53 -45 -128 -45q-99 0 -157 63.5t-58 164.5q0 108 72.5 179.5t192.5 71.5q107 0 196 -31v-456q0 -96 -62.5 -150t-161.5 -54q-128 0 -192 49zM379 199v168q-27 10 -76 10q-68 0 -107.5 -42.5t-39.5 -103.5
q0 -57 28.5 -92.5t85.5 -35.5q109 0 109 96zM231 540l79 142h95l-48 -142h-126z" />
    <glyph glyph-name="Hcircumflex" unicode="&#x124;" horiz-adv-x="723" 
d="M70 0v667h126v-268h331v268h126v-667h-126v287h-331v-287h-126zM195 717l110 156h111l110 -156h-104l-62 82l-61 -82h-104z" />
    <glyph glyph-name="hcircumflex" unicode="&#x125;" horiz-adv-x="551" 
d="M58 0v667h116v-246q52 58 141 58q86 0 133 -52.5t47 -141.5v-285h-118v284q0 44 -24 69t-64 25q-48 0 -80.5 -36t-32.5 -88v-254h-118zM62 717l110 156h111l110 -156h-104l-62 82l-61 -82h-104z" />
    <glyph glyph-name="Hbar" unicode="&#x126;" horiz-adv-x="723" 
d="M70 0v487h-70v88h70v92h125v-92h333v92h125v-92h70v-88h-70v-487h-125v287h-333v-287h-125zM195 399h333v88h-333v-88z" />
    <glyph glyph-name="hbar" unicode="&#x127;" horiz-adv-x="551" 
d="M58 0v522h-56v79h56v66h116v-66h172v-79h-172v-121q52 58 141 58q86 0 133 -52.5t47 -141.5v-265h-118v264q0 44 -24 69t-64 25q-48 0 -80.5 -36t-32.5 -88v-234h-118z" />
    <glyph glyph-name="Itilde" unicode="&#x128;" horiz-adv-x="266" 
d="M70 0v667h126v-667h-126zM-17 729l-49 75q61 61 128 61q30 0 68.5 -21t66.5 -21q45 0 92 37l49 -75q-63 -63 -127 -63q-29 0 -68.5 22t-67.5 22q-45 0 -92 -37z" />
    <glyph glyph-name="itilde" unicode="&#x129;" horiz-adv-x="244" 
d="M63 0v469h118v-469h-118zM-23 545l-45 70q20 22 52.5 40t68.5 18q28 0 65 -20.5t64 -20.5q13 0 24 2t21.5 7t15.5 8t15.5 10.5t11.5 8.5l45 -70q-55 -60 -120 -60q-28 0 -65.5 21.5t-64.5 21.5q-13 0 -24 -2t-21.5 -7t-15.5 -8t-15.5 -10.5t-11.5 -8.5z" />
    <glyph glyph-name="Imacron" unicode="&#x12a;" horiz-adv-x="266" 
d="M70 0v667h126v-667h-126zM-23 747v97h315v-97h-315z" />
    <glyph glyph-name="imacron" unicode="&#x12b;" horiz-adv-x="244" 
d="M63 0v469h118v-469h-118zM-8 557v92h261v-92h-261z" />
    <glyph glyph-name="Ibreve" unicode="&#x12c;" horiz-adv-x="266" 
d="M70 0v667h126v-667h-126zM-27 863h93q0 -28 18 -47.5t49 -19.5t49 19.5t18 47.5h93q0 -62 -41.5 -105.5t-118.5 -43.5t-118.5 43.5t-41.5 105.5z" />
    <glyph glyph-name="ibreve" unicode="&#x12d;" horiz-adv-x="244" 
d="M63 0v469h118v-469h-118zM-29 682h92q0 -27 14.5 -46t47.5 -19t47.5 19t14.5 46h92q0 -58 -41 -100t-113 -42t-113 42t-41 100z" />
    <glyph glyph-name="Iogonek" unicode="&#x12e;" horiz-adv-x="266" 
d="M70 0v667h126v-667q-47 -47 -47 -82q0 -21 26 -21q25 0 50 17l29 -75q-56 -37 -113 -37q-50 0 -75.5 21.5t-25.5 58.5q0 53 63 118h-33z" />
    <glyph glyph-name="iogonek" unicode="&#x12f;" horiz-adv-x="244" 
d="M63 0v469h118v-469q-52 -50 -52 -80q0 -21 25 -21q26 0 55 19l28 -74q-52 -36 -110 -36q-98 0 -98 78q0 49 61 114h-27zM59 543v124h126v-124h-126z" />
    <glyph glyph-name="Idotaccent" unicode="&#x130;" horiz-adv-x="266" 
d="M70 0v667h126v-667h-126zM68 734v123h129v-123h-129z" />
    <glyph glyph-name="dotlessi" unicode="&#x131;" horiz-adv-x="244" 
d="M63 0v469h118v-469h-118z" />
    <glyph glyph-name="IJ" unicode="&#x132;" horiz-adv-x="791" 
d="M70 0v667h126v-667h-126zM293 77l88 80q31 -34 57.5 -46t63.5 -12q39 0 68.5 27.5t29.5 76.5v464h126v-471q0 -110 -64 -162t-154 -52q-140 0 -215 95z" />
    <glyph glyph-name="ij" unicode="&#x133;" horiz-adv-x="475" 
d="M59 543v124h126v-124h-126zM63 0v469h118v-469h-118zM289 543v124h126v-124h-126zM144 -163l44 80q27 -16 54 -16q24 0 38 19.5t14 55.5v493h118v-470q0 -199 -154 -199q-61 0 -114 37z" />
    <glyph glyph-name="Jcircumflex" unicode="&#x134;" horiz-adv-x="508" 
d="M10 77l88 80q31 -34 57.5 -46t63.5 -12q39 0 68.5 27.5t29.5 76.5v464h126v-471q0 -110 -64 -162t-154 -52q-140 0 -215 95zM216 717l110 156h111l110 -156h-104l-62 82l-61 -82h-104z" />
    <glyph glyph-name="jcircumflex" unicode="&#x135;" horiz-adv-x="244" 
d="M-36 540l104 142h111l104 -142h-104l-56 76l-55 -76h-104zM-87 -163l44 80q27 -16 54 -16q24 0 38 19.5t14 55.5v493h118v-470q0 -199 -154 -199q-61 0 -114 37z" />
    <glyph glyph-name="Kcommaaccent" unicode="&#x136;" horiz-adv-x="621" 
d="M70 0v667h126v-274l247 274h143l-246 -273l273 -394h-152l-203 303l-62 -69v-234h-126zM193 -209l53 158h139l-88 -158h-104z" />
    <glyph glyph-name="kcommaaccent" unicode="&#x137;" horiz-adv-x="512" 
d="M58 0v667h118v-364l169 166h139l-176 -173l196 -296h-141l-136 216l-51 -50v-166h-118zM155 -193l48 142h126l-79 -142h-95z" />
    <glyph glyph-name="kgreenlandic" unicode="&#x138;" horiz-adv-x="512" 
d="M58 0v469h118v-166l169 166h139l-176 -173l196 -296h-141l-136 216l-51 -50v-166h-118z" />
    <glyph glyph-name="Lacute" unicode="&#x139;" horiz-adv-x="553" 
d="M70 0v667h126v-555h329v-112h-455zM80 717l73 156h146l-114 -156h-105z" />
    <glyph glyph-name="lacute" unicode="&#x13a;" horiz-adv-x="234" 
d="M58 0v667h118v-667h-118zM58 717l73 156h146l-114 -156h-105z" />
    <glyph glyph-name="Lcommaaccent" unicode="&#x13b;" horiz-adv-x="553" 
d="M70 0v667h126v-555h329v-112h-455zM180 -209l53 158h139l-88 -158h-104z" />
    <glyph glyph-name="lcommaaccent" unicode="&#x13c;" horiz-adv-x="234" 
d="M58 0v667h118v-667h-118zM5 -193l48 142h126l-79 -142h-95z" />
    <glyph glyph-name="Lcaron" unicode="&#x13d;" horiz-adv-x="553" 
d="M288 478v189h129l-34 -189h-95zM70 0v667h126v-555h329v-112h-455z" />
    <glyph glyph-name="lcaron" unicode="&#x13e;" horiz-adv-x="234" 
d="M58 0v667h118v-667h-118zM229 498v169h110l-34 -169h-76z" />
    <glyph glyph-name="Ldot" unicode="&#x13f;" horiz-adv-x="553" 
d="M70 0v667h126v-555h329v-112h-455zM341 317v123h129v-123h-129z" />
    <glyph glyph-name="ldot" unicode="&#x140;" horiz-adv-x="384" 
d="M58 0v667h118v-667h-118zM248 297v117h123v-117h-123z" />
    <glyph glyph-name="Lslash" unicode="&#x141;" horiz-adv-x="553" 
d="M70 0v252l-67 -42v109l67 42v306h126v-226l143 91v-110l-143 -90v-220h329v-112h-455z" />
    <glyph glyph-name="lslash" unicode="&#x142;" horiz-adv-x="234" 
d="M58 0v262l-55 -35v100l55 35v305h118v-228l55 36v-100l-55 -36v-339h-118z" />
    <glyph glyph-name="Nacute" unicode="&#x143;" horiz-adv-x="713" 
d="M70 0v667h127l323 -474v474h123v-667h-124l-326 480v-480h-123zM295 717l73 156h146l-114 -156h-105z" />
    <glyph glyph-name="nacute" unicode="&#x144;" horiz-adv-x="551" 
d="M58 0v469h113l3 -53q58 63 141 63q87 0 133.5 -51.5t46.5 -142.5v-285h-118v284q0 44 -24 69t-64 25q-48 0 -80.5 -36t-32.5 -88v-254h-118zM231 540l48 142h126l-79 -142h-95z" />
    <glyph glyph-name="Ncommaaccent" unicode="&#x145;" horiz-adv-x="713" 
d="M70 0v667h127l323 -474v474h123v-667h-124l-326 480v-480h-123zM257 -209l53 158h139l-88 -158h-104z" />
    <glyph glyph-name="ncommaaccent" unicode="&#x146;" horiz-adv-x="551" 
d="M58 0v469h113l3 -53q58 63 141 63q87 0 133.5 -51.5t46.5 -142.5v-285h-118v284q0 44 -24 69t-64 25q-48 0 -80.5 -36t-32.5 -88v-254h-118zM168 -193l48 142h126l-79 -142h-95z" />
    <glyph glyph-name="Ncaron" unicode="&#x147;" horiz-adv-x="713" 
d="M70 0v667h127l323 -474v474h123v-667h-124l-326 480v-480h-123zM304 717l-110 156h104l62 -82l61 82h104l-110 -156h-111z" />
    <glyph glyph-name="ncaron" unicode="&#x148;" horiz-adv-x="551" 
d="M58 0v469h113l3 -53q58 63 141 63q87 0 133.5 -51.5t46.5 -142.5v-285h-118v284q0 44 -24 69t-64 25q-48 0 -80.5 -36t-32.5 -88v-254h-118zM226 540l-104 142h104l56 -76l55 76h104l-104 -142h-111z" />
    <glyph glyph-name="napostrophe" unicode="&#x149;" horiz-adv-x="551" 
d="M58 0v469h113l3 -53q58 63 141 63q87 0 133.5 -51.5t46.5 -142.5v-285h-118v284q0 44 -24 69t-64 25q-48 0 -80.5 -36t-32.5 -88v-254h-118zM14 540l8 142h119l-39 -142h-88z" />
    <glyph glyph-name="Eng" unicode="&#x14a;" horiz-adv-x="713" 
d="M70 0v667h127l323 -474v474h123v-667q0 -200 -160 -200q-62 0 -120 37l46 84q27 -16 56 -16q54 0 54 77v18l-326 480v-480h-123z" />
    <glyph glyph-name="eng" unicode="&#x14b;" horiz-adv-x="551" 
d="M58 0v469h113l3 -53q58 63 141 63q86 0 133 -52.5t47 -141.5v-285q0 -199 -154 -199q-61 0 -114 37l44 80q27 -16 54 -16q24 0 38 19.5t14 55.5v307q0 44 -24 69t-64 25q-48 0 -80.5 -36t-32.5 -88v-254h-118z" />
    <glyph glyph-name="Omacron" unicode="&#x14c;" horiz-adv-x="782" 
d="M391 -18q-145 0 -246 102.5t-101 249.5t100.5 249t246.5 102q145 0 246 -102.5t101 -248.5q0 -147 -101 -249.5t-246 -102.5zM391 101q96 0 155.5 69t59.5 167q0 99 -59 166.5t-156 67.5t-156 -67.5t-59 -166.5q0 -98 59.5 -167t155.5 -69zM235 747v97h315v-97h-315z" />
    <glyph glyph-name="omacron" unicode="&#x14d;" horiz-adv-x="576" 
d="M36 235q0 104 71 177t181 73t181 -73t71 -177t-71 -177.5t-181 -73.5t-181 73.5t-71 177.5zM288 86q63 0 98 46t35 103t-35 102.5t-98 45.5t-98 -45.5t-35 -102.5t35 -103t98 -46zM159 558v92h261v-92h-261z" />
    <glyph glyph-name="Obreve" unicode="&#x14e;" horiz-adv-x="782" 
d="M391 -18q-145 0 -246 102.5t-101 249.5t100.5 249t246.5 102q145 0 246 -102.5t101 -248.5q0 -147 -101 -249.5t-246 -102.5zM391 101q96 0 155.5 69t59.5 167q0 99 -59 166.5t-156 67.5t-156 -67.5t-59 -166.5q0 -98 59.5 -167t155.5 -69zM231 863h93q0 -28 18 -47.5
t49 -19.5t49 19.5t18 47.5h93q0 -62 -41.5 -105.5t-118.5 -43.5t-118.5 43.5t-41.5 105.5z" />
    <glyph glyph-name="obreve" unicode="&#x14f;" horiz-adv-x="576" 
d="M36 235q0 104 71 177t181 73t181 -73t71 -177t-71 -177.5t-181 -73.5t-181 73.5t-71 177.5zM288 86q63 0 98 46t35 103t-35 102.5t-98 45.5t-98 -45.5t-35 -102.5t35 -103t98 -46zM135 682h92q0 -27 14.5 -46t47.5 -19t47.5 19t14.5 46h92q0 -58 -41 -100t-113 -42
t-113 42t-41 100z" />
    <glyph glyph-name="Ohungarumlaut" unicode="&#x150;" horiz-adv-x="782" 
d="M391 -18q-145 0 -246 102.5t-101 249.5t100.5 249t246.5 102q145 0 246 -102.5t101 -248.5q0 -147 -101 -249.5t-246 -102.5zM391 101q96 0 155.5 69t59.5 167q0 99 -59 166.5t-156 67.5t-156 -67.5t-59 -166.5q0 -98 59.5 -167t155.5 -69zM256 717l73 156h138l-114 -156
h-97zM441 717l73 156h138l-114 -156h-97z" />
    <glyph glyph-name="ohungarumlaut" unicode="&#x151;" horiz-adv-x="576" 
d="M36 235q0 104 71 177t181 73t181 -73t71 -177t-71 -177.5t-181 -73.5t-181 73.5t-71 177.5zM288 86q63 0 98 46t35 103t-35 102.5t-98 45.5t-98 -45.5t-35 -102.5t35 -103t98 -46zM317 540l48 142h119l-79 -142h-88zM155 540l48 142h119l-79 -142h-88z" />
    <glyph glyph-name="OE" unicode="&#x152;" horiz-adv-x="1104" 
d="M606 0v83q-32 -46 -92 -73.5t-129 -27.5q-142 0 -241.5 103t-99.5 249t99.5 248.5t241.5 102.5q70 0 129 -27.5t92 -71.5v81h432v-111h-310v-157h229v-112h-229v-174h333v-113h-455zM391 101q95 0 154.5 69t59.5 167q0 99 -59 166.5t-156 67.5t-156 -67.5t-59 -166.5
q0 -98 60 -167t156 -69z" />
    <glyph glyph-name="oe" unicode="&#x153;" horiz-adv-x="922" 
d="M819 140l64 -72l-2 -2q-75 -82 -213 -82q-124 0 -192 93q-31 -43 -80.5 -68t-107.5 -25q-110 0 -181 73.5t-71 177.5t71 177t181 73q56 0 105 -24.5t81 -65.5q68 90 184 90q62 0 108.5 -23t72 -62.5t38 -85.5t12.5 -98v-17h-350q0 -49 40.5 -81.5t89.5 -32.5q95 0 150 55
zM538 284h230q0 39 -29.5 70.5t-80.5 31.5q-54 0 -87 -31.5t-33 -70.5zM288 86q63 0 98 46t35 103t-35 102.5t-98 45.5t-98 -45.5t-35 -102.5t35 -103t98 -46z" />
    <glyph glyph-name="Racute" unicode="&#x154;" horiz-adv-x="586" 
d="M70 0v667h221q60 0 106.5 -19t72 -49t38.5 -63.5t13 -67.5q0 -132 -112 -189l154 -279h-142l-135 263h-95v-263h-121zM191 367h101q47 0 74 27.5t27 68.5q0 43 -28 70t-73 27h-101v-193zM206 717l73 156h146l-114 -156h-105z" />
    <glyph glyph-name="racute" unicode="&#x155;" horiz-adv-x="382" 
d="M58 0v469h113l3 -59q55 68 141 68q34 0 58 -9l-24 -111q-21 9 -54 9q-50 0 -84.5 -31.5t-34.5 -82.5v-253h-118zM166 540l48 142h126l-79 -142h-95z" />
    <glyph glyph-name="Rcommaaccent" unicode="&#x156;" horiz-adv-x="586" 
d="M70 0v667h221q60 0 106.5 -19t72 -49t38.5 -63.5t13 -67.5q0 -132 -112 -189l154 -279h-142l-135 263h-95v-263h-121zM191 367h101q47 0 74 27.5t27 68.5q0 43 -28 70t-73 27h-101v-193zM183 -209l53 158h139l-88 -158h-104z" />
    <glyph glyph-name="rcommaaccent" unicode="&#x157;" horiz-adv-x="382" 
d="M58 0v469h113l3 -59q55 68 141 68q34 0 58 -9l-24 -111q-21 9 -54 9q-50 0 -84.5 -31.5t-34.5 -82.5v-253h-118zM9 -193l48 142h126l-79 -142h-95z" />
    <glyph glyph-name="Rcaron" unicode="&#x158;" horiz-adv-x="586" 
d="M70 0v667h221q60 0 106.5 -19t72 -49t38.5 -63.5t13 -67.5q0 -132 -112 -189l154 -279h-142l-135 263h-95v-263h-121zM191 367h101q47 0 74 27.5t27 68.5q0 43 -28 70t-73 27h-101v-193zM218 717l-110 156h104l62 -82l61 82h104l-110 -156h-111z" />
    <glyph glyph-name="rcaron" unicode="&#x159;" horiz-adv-x="382" 
d="M58 0v469h113l3 -59q55 68 141 68q34 0 58 -9l-24 -111q-21 9 -54 9q-50 0 -84.5 -31.5t-34.5 -82.5v-253h-118zM154 540l-104 142h104l56 -76l55 76h104l-104 -142h-111z" />
    <glyph glyph-name="Sacute" unicode="&#x15a;" horiz-adv-x="593" 
d="M31 107l88 81q78 -90 169 -90q57 0 86.5 26t29.5 66q0 43 -35 66.5t-125 41.5q-88 17 -133.5 70.5t-45.5 124.5q0 81 60 136.5t172 55.5q133 0 211 -91l3 -3l-83 -78l-9 9q-9 8 -15 12.5t-19.5 13t-25.5 13.5t-29.5 9t-36.5 4q-48 0 -74.5 -23.5t-26.5 -51.5
q0 -37 30 -59.5t109 -37.5q88 -18 143.5 -70t55.5 -145q0 -87 -68 -146t-172 -59q-160 0 -259 125zM236 717l73 156h146l-114 -156h-105z" />
    <glyph glyph-name="sacute" unicode="&#x15b;" horiz-adv-x="478" 
d="M35 57l71 77q51 -51 132 -51q84 0 84 43q0 21 -23.5 36t-95.5 32q-150 38 -150 144q0 66 59 106.5t134 40.5q114 0 184 -52l-61 -83q-49 37 -123 37q-75 0 -75 -43q0 -21 25 -33.5t88 -27.5q76 -17 116 -52t40 -99q0 -66 -58.5 -107t-142.5 -41q-139 0 -204 73zM199 540
l48 142h126l-79 -142h-95z" />
    <glyph glyph-name="Scircumflex" unicode="&#x15c;" horiz-adv-x="593" 
d="M31 107l88 81q78 -90 169 -90q57 0 86.5 26t29.5 66q0 43 -35 66.5t-125 41.5q-88 17 -133.5 70.5t-45.5 124.5q0 81 60 136.5t172 55.5q133 0 211 -91l3 -3l-83 -78l-9 9q-9 8 -15 12.5t-19.5 13t-25.5 13.5t-29.5 9t-36.5 4q-48 0 -74.5 -23.5t-26.5 -51.5
q0 -37 30 -59.5t109 -37.5q88 -18 143.5 -70t55.5 -145q0 -87 -68 -146t-172 -59q-160 0 -259 125zM132 717l110 156h111l110 -156h-104l-62 82l-61 -82h-104z" />
    <glyph glyph-name="scircumflex" unicode="&#x15d;" horiz-adv-x="478" 
d="M35 57l71 77q51 -51 132 -51q84 0 84 43q0 21 -23.5 36t-95.5 32q-150 38 -150 144q0 66 59 106.5t134 40.5q114 0 184 -52l-61 -83q-49 37 -123 37q-75 0 -75 -43q0 -21 25 -33.5t88 -27.5q76 -17 116 -52t40 -99q0 -66 -58.5 -107t-142.5 -41q-139 0 -204 73zM92 540
l104 142h111l104 -142h-104l-56 76l-55 -76h-104z" />
    <glyph glyph-name="Scedilla" unicode="&#x15e;" horiz-adv-x="593" 
d="M31 107l88 81q78 -90 169 -90q57 0 86.5 26t29.5 66q0 43 -35 66.5t-125 41.5q-88 17 -133.5 70.5t-45.5 124.5q0 81 60 136.5t172 55.5q133 0 211 -91l3 -3l-83 -78l-9 9q-9 8 -15 12.5t-19.5 13t-25.5 13.5t-29.5 9t-36.5 4q-48 0 -74.5 -23.5t-26.5 -51.5
q0 -37 30 -59.5t109 -37.5q88 -18 143.5 -70t55.5 -145q0 -87 -68 -146t-172 -59q-160 0 -259 125zM165 -219l13 69q33 -12 70 -12q56 0 56 30q0 29 -52 29q-37 0 -64 -11l11 68q41 12 85 12q54 0 85.5 -25.5t31.5 -67.5q0 -50 -39.5 -78t-93.5 -28q-42 0 -75 7q-18 3 -28 7
z" />
    <glyph glyph-name="scedilla" unicode="&#x15f;" horiz-adv-x="478" 
d="M35 57l71 77q51 -51 132 -51q84 0 84 43q0 21 -23.5 36t-95.5 32q-150 38 -150 144q0 66 59 106.5t134 40.5q114 0 184 -52l-61 -83q-49 37 -123 37q-75 0 -75 -43q0 -21 25 -33.5t88 -27.5q76 -17 116 -52t40 -99q0 -66 -58.5 -107t-142.5 -41q-139 0 -204 73zM115 -217
l13 67q33 -12 69 -12q58 0 58 32q0 30 -54 30q-36 0 -63 -11l11 67q41 12 84 12q53 0 84 -25.5t31 -67.5q0 -50 -38.5 -78t-92.5 -28q-42 0 -75 7q-19 3 -27 7z" />
    <glyph glyph-name="Scaron" unicode="&#x160;" horiz-adv-x="593" 
d="M31 107l88 81q78 -90 169 -90q57 0 86.5 26t29.5 66q0 43 -35 66.5t-125 41.5q-88 17 -133.5 70.5t-45.5 124.5q0 81 60 136.5t172 55.5q133 0 211 -91l3 -3l-83 -78l-9 9q-9 8 -15 12.5t-19.5 13t-25.5 13.5t-29.5 9t-36.5 4q-48 0 -74.5 -23.5t-26.5 -51.5
q0 -37 30 -59.5t109 -37.5q88 -18 143.5 -70t55.5 -145q0 -87 -68 -146t-172 -59q-160 0 -259 125zM243 717l-110 156h104l62 -82l61 82h104l-110 -156h-111z" />
    <glyph glyph-name="scaron" unicode="&#x161;" horiz-adv-x="478" 
d="M35 57l71 77q51 -51 132 -51q84 0 84 43q0 21 -23.5 36t-95.5 32q-150 38 -150 144q0 66 59 106.5t134 40.5q114 0 184 -52l-61 -83q-49 37 -123 37q-75 0 -75 -43q0 -21 25 -33.5t88 -27.5q76 -17 116 -52t40 -99q0 -66 -58.5 -107t-142.5 -41q-139 0 -204 73zM199 540
l-104 142h104l56 -76l55 76h104l-104 -142h-111z" />
    <glyph glyph-name="Tcommaaccent" unicode="&#x162;" horiz-adv-x="624" 
d="M249 0v556h-226v111h578v-111h-226v-556h-126zM190 -209l53 158h139l-88 -158h-104z" />
    <glyph glyph-name="tcommaaccent" unicode="&#x163;" horiz-adv-x="402" 
d="M98 160v213h-80v96h80v152h118v-152h126v-96h-126v-205q0 -83 57 -83q40 0 76 27l50 -73q-65 -54 -145 -54q-156 0 -156 175zM138 -193l48 142h126l-79 -142h-95z" />
    <glyph glyph-name="Tcaron" unicode="&#x164;" horiz-adv-x="624" 
d="M249 0v556h-226v111h578v-111h-226v-556h-126zM256 717l-110 156h104l62 -82l61 82h104l-110 -156h-111z" />
    <glyph glyph-name="tcaron" unicode="&#x165;" horiz-adv-x="402" 
d="M269 513v155h110l-34 -155h-76zM98 160v213h-80v96h80v152h118v-152h126v-96h-126v-205q0 -83 57 -83q40 0 76 27l50 -73q-65 -54 -145 -54q-156 0 -156 175z" />
    <glyph glyph-name="Tbar" unicode="&#x166;" horiz-adv-x="624" 
d="M249 0v255h-134v104h134v197h-226v111h578v-111h-226v-197h133v-104h-133v-255h-126z" />
    <glyph glyph-name="tbar" unicode="&#x167;" horiz-adv-x="402" 
d="M19 196v84h79v93h-80v96h80v152h118v-152h126v-96h-126v-93h126v-84h-126v-28q0 -83 57 -83q40 0 76 27l50 -73q-65 -54 -145 -54q-156 0 -156 175v36h-79z" />
    <glyph glyph-name="Utilde" unicode="&#x168;" horiz-adv-x="674" 
d="M65 246v421h126v-399q0 -80 34 -122.5t112 -42.5t112 42.5t34 122.5v399h126v-421q0 -115 -73 -189.5t-199 -74.5t-199 74.5t-73 189.5zM182 729l-49 75q61 61 128 61q30 0 68.5 -21t66.5 -21q45 0 92 37l49 -75q-63 -63 -127 -63q-29 0 -68.5 22t-67.5 22q-45 0 -92 -37
z" />
    <glyph glyph-name="utilde" unicode="&#x169;" horiz-adv-x="551" 
d="M56 184v285h118v-284q0 -44 24 -69t64 -25q48 0 80.5 36t32.5 88v254h118v-469h-113l-3 53q-56 -63 -141 -63q-87 0 -133.5 51.5t-46.5 142.5zM124 545l-45 70q20 22 52.5 40t68.5 18q28 0 65 -20.5t64 -20.5q13 0 24 2t21.5 7t15.5 8t15.5 10.5t11.5 8.5l45 -70
q-55 -60 -120 -60q-28 0 -65.5 21.5t-64.5 21.5q-13 0 -24 -2t-21.5 -7t-15.5 -8t-15.5 -10.5t-11.5 -8.5z" />
    <glyph glyph-name="Umacron" unicode="&#x16a;" horiz-adv-x="674" 
d="M65 246v421h126v-399q0 -80 34 -122.5t112 -42.5t112 42.5t34 122.5v399h126v-421q0 -115 -73 -189.5t-199 -74.5t-199 74.5t-73 189.5zM181 747v97h315v-97h-315z" />
    <glyph glyph-name="umacron" unicode="&#x16b;" horiz-adv-x="551" 
d="M56 184v285h118v-284q0 -44 24 -69t64 -25q48 0 80.5 36t32.5 88v254h118v-469h-113l-3 53q-56 -63 -141 -63q-87 0 -133.5 51.5t-46.5 142.5zM142 557v92h261v-92h-261z" />
    <glyph glyph-name="Ubreve" unicode="&#x16c;" horiz-adv-x="674" 
d="M65 246v421h126v-399q0 -80 34 -122.5t112 -42.5t112 42.5t34 122.5v399h126v-421q0 -115 -73 -189.5t-199 -74.5t-199 74.5t-73 189.5zM179 863h93q0 -28 18 -47.5t49 -19.5t49 19.5t18 47.5h93q0 -62 -41.5 -105.5t-118.5 -43.5t-118.5 43.5t-41.5 105.5z" />
    <glyph glyph-name="ubreve" unicode="&#x16d;" horiz-adv-x="551" 
d="M56 184v285h118v-284q0 -44 24 -69t64 -25q48 0 80.5 36t32.5 88v254h118v-469h-113l-3 53q-56 -63 -141 -63q-87 0 -133.5 51.5t-46.5 142.5zM121 682h92q0 -27 14.5 -46t47.5 -19t47.5 19t14.5 46h92q0 -58 -41 -100t-113 -42t-113 42t-41 100z" />
    <glyph glyph-name="Uring" unicode="&#x16e;" horiz-adv-x="674" 
d="M65 246v421h126v-399q0 -80 34 -122.5t112 -42.5t112 42.5t34 122.5v399h126v-421q0 -115 -73 -189.5t-199 -74.5t-199 74.5t-73 189.5zM205 803q0 56 38 92t93 36q56 0 94 -36t38 -91q0 -56 -38 -92t-93 -36q-56 0 -94 36t-38 91zM337 751q23 0 36.5 14.5t13.5 38.5
t-13.5 38t-37.5 14q-23 0 -36.5 -14.5t-13.5 -38.5t13.5 -38t37.5 -14z" />
    <glyph glyph-name="uring" unicode="&#x16f;" horiz-adv-x="551" 
d="M56 184v285h118v-284q0 -44 24 -69t64 -25q48 0 80.5 36t32.5 88v254h118v-469h-113l-3 53q-56 -63 -141 -63q-87 0 -133.5 51.5t-46.5 142.5zM155 644q0 48 34 80.5t83 32.5t83.5 -32.5t34.5 -79.5q0 -48 -34 -80.5t-83 -32.5t-83.5 32.5t-34.5 79.5zM272 600
q19 0 31.5 12.5t12.5 31.5q0 18 -12.5 30.5t-30.5 12.5q-19 0 -31.5 -12.5t-12.5 -30.5q0 -19 12.5 -31.5t30.5 -12.5z" />
    <glyph glyph-name="Uhungarumlaut" unicode="&#x170;" horiz-adv-x="674" 
d="M65 246v421h126v-399q0 -80 34 -122.5t112 -42.5t112 42.5t34 122.5v399h126v-421q0 -115 -73 -189.5t-199 -74.5t-199 74.5t-73 189.5zM182 717l73 156h138l-114 -156h-97zM367 717l73 156h138l-114 -156h-97z" />
    <glyph glyph-name="uhungarumlaut" unicode="&#x171;" horiz-adv-x="551" 
d="M56 184v285h118v-284q0 -44 24 -69t64 -25q48 0 80.5 36t32.5 88v254h118v-469h-113l-3 53q-56 -63 -141 -63q-87 0 -133.5 51.5t-46.5 142.5zM306 540l48 142h119l-79 -142h-88zM144 540l48 142h119l-79 -142h-88z" />
    <glyph glyph-name="Uogonek" unicode="&#x172;" horiz-adv-x="674" 
d="M65 246v421h126v-399q0 -80 34 -122.5t112 -42.5q149 0 149 165v399h123v-421q0 -154 -124 -227q-75 -47 -75 -93q0 -29 26 -29q25 0 50 17l29 -75q-56 -37 -113 -37q-50 0 -75.5 21.5t-25.5 58.5q0 45 47 101h-17q-124 0 -195 75.5t-71 187.5z" />
    <glyph glyph-name="uogonek" unicode="&#x173;" horiz-adv-x="551" 
d="M56 184v285h118v-284q0 -44 24 -69t64 -25q48 0 80.5 36t32.5 88v254h118v-469q-52 -50 -52 -80q0 -21 25 -21q26 0 55 19l28 -74q-52 -36 -110 -36q-98 0 -98 78q0 49 61 114h-22l-3 53q-56 -63 -141 -63q-87 0 -133.5 51.5t-46.5 142.5z" />
    <glyph glyph-name="Wcircumflex" unicode="&#x174;" horiz-adv-x="880" 
d="M183 0l-173 667h138l109 -499l129 480h114l130 -480l108 499h132l-175 -667h-132l-124 441l-126 -441h-130zM280 717l110 156h111l110 -156h-104l-62 82l-61 -82h-104z" />
    <glyph glyph-name="wcircumflex" unicode="&#x175;" horiz-adv-x="749" 
d="M168 0l-159 469h130l90 -326l99 326h99l100 -326l89 326h124l-159 -469h-114l-96 283l-93 -283h-110zM222 540l104 142h111l104 -142h-104l-56 76l-55 -76h-104z" />
    <glyph glyph-name="Ycircumflex" unicode="&#x176;" horiz-adv-x="600" 
d="M236 0v293l-231 374h138l160 -266l160 266h132l-231 -374v-293h-128zM138 717l110 156h111l110 -156h-104l-62 82l-61 -82h-104z" />
    <glyph glyph-name="ycircumflex" unicode="&#x177;" horiz-adv-x="527" 
d="M24 -176l53 83q27 -23 52 -23q23 0 38.5 18.5t33.5 63.5l15 38l-211 465h136l134 -321l118 321h129l-196 -469q-3 -9 -15 -40t-17.5 -43t-18.5 -38t-24.5 -37.5t-28.5 -26.5t-38.5 -21t-46.5 -6q-71 0 -113 36zM110 540l104 142h111l104 -142h-104l-56 76l-55 -76h-104z
" />
    <glyph glyph-name="Ydieresis" unicode="&#x178;" horiz-adv-x="600" 
d="M236 0v293l-231 374h138l160 -266l160 266h132l-231 -374v-293h-128zM347 737v117h123v-117h-123zM134 737v117h123v-117h-123z" />
    <glyph glyph-name="Zacute" unicode="&#x179;" horiz-adv-x="658" 
d="M53 0v110l393 446h-375v111h526v-111l-385 -446h393v-110h-552zM261 717l73 156h146l-114 -156h-105z" />
    <glyph glyph-name="zacute" unicode="&#x17a;" horiz-adv-x="472" 
d="M46 0v90l239 280h-232v99h379v-92l-247 -281h247v-96h-386zM208 540l48 142h126l-79 -142h-95z" />
    <glyph glyph-name="Zdotaccent" unicode="&#x17b;" horiz-adv-x="658" 
d="M53 0v110l393 446h-375v111h526v-111l-385 -446h393v-110h-552zM276 734v123h129v-123h-129z" />
    <glyph glyph-name="zdotaccent" unicode="&#x17c;" horiz-adv-x="472" 
d="M46 0v90l239 280h-232v99h379v-92l-247 -281h247v-96h-386zM191 553v117h123v-117h-123z" />
    <glyph glyph-name="Zcaron" unicode="&#x17d;" horiz-adv-x="658" 
d="M53 0v110l393 446h-375v111h526v-111l-385 -446h393v-110h-552zM284 717l-110 156h104l62 -82l61 82h104l-110 -156h-111z" />
    <glyph glyph-name="zcaron" unicode="&#x17e;" horiz-adv-x="472" 
d="M46 0v90l239 280h-232v99h379v-92l-247 -281h247v-96h-386zM198 540l-104 142h104l56 -76l55 76h104l-104 -142h-111z" />
    <glyph glyph-name="longs" unicode="&#x17f;" horiz-adv-x="233" 
d="M58 0v474q0 106 41 152q52 59 133 59q91 0 146 -49l-55 -78q-29 21 -61.5 24.5t-60.5 -16.5q-12 -10 -17.5 -25.5t-6.5 -28t-2 -43.5l1 -469h-118z" />
    <glyph glyph-name="florin" unicode="&#x192;" horiz-adv-x="545" 
d="M-74 -152l64 91q29 -28 68 -28q36 0 54.5 17.5t27.5 69.5l54 296h-87v98h105l13 73q32 183 195 183q90 0 138 -53l-62 -85q-32 28 -70 28q-36 0 -54.5 -18t-27.5 -70l-11 -58h100v-98h-118l-56 -311q-17 -88 -63.5 -135.5t-136.5 -47.5q-75 0 -133 48z" />
    <glyph glyph-name="Scommaaccent" unicode="&#x218;" horiz-adv-x="593" 
d="M31 107l88 81q78 -90 169 -90q57 0 86.5 26t29.5 66q0 43 -35 66.5t-125 41.5q-88 17 -133.5 70.5t-45.5 124.5q0 81 60 136.5t172 55.5q133 0 211 -91l3 -3l-83 -78l-9 9q-9 8 -15 12.5t-19.5 13t-25.5 13.5t-29.5 9t-36.5 4q-48 0 -74.5 -23.5t-26.5 -51.5
q0 -37 30 -59.5t109 -37.5q88 -18 143.5 -70t55.5 -145q0 -87 -68 -146t-172 -59q-160 0 -259 125zM178 -209l53 158h139l-88 -158h-104z" />
    <glyph glyph-name="scommaaccent" unicode="&#x219;" horiz-adv-x="478" 
d="M35 57l71 77q51 -51 132 -51q84 0 84 43q0 21 -23.5 36t-95.5 32q-150 38 -150 144q0 66 59 106.5t134 40.5q114 0 184 -52l-61 -83q-49 37 -123 37q-75 0 -75 -43q0 -21 25 -33.5t88 -27.5q76 -17 116 -52t40 -99q0 -66 -58.5 -107t-142.5 -41q-139 0 -204 73zM141 -193
l48 142h126l-79 -142h-95z" />
    <glyph glyph-name="uni021A" unicode="&#x21a;" horiz-adv-x="624" 
d="M249 0v556h-226v111h578v-111h-226v-556h-126zM190 -209l53 158h139l-88 -158h-104z" />
    <glyph glyph-name="uni021B" unicode="&#x21b;" horiz-adv-x="402" 
d="M98 160v213h-80v96h80v152h118v-152h126v-96h-126v-205q0 -83 57 -83q40 0 76 27l50 -73q-65 -54 -145 -54q-156 0 -156 175zM138 -193l48 142h126l-79 -142h-95z" />
    <glyph glyph-name="dotlessj" unicode="&#x237;" horiz-adv-x="244" 
d="M-87 -163l44 80q27 -16 54 -16q24 0 38 19.5t14 55.5v493h118v-470q0 -199 -154 -199q-61 0 -114 37z" />
    <glyph glyph-name="apostrophe" unicode="&#x2bc;" horiz-adv-x="116" 
d="M10 540l8 142h119l-39 -142h-88z" />
    <glyph glyph-name="circumflex" unicode="&#x2c6;" horiz-adv-x="449" 
d="M65 540l104 142h111l104 -142h-104l-56 76l-55 -76h-104z" />
    <glyph glyph-name="caron" unicode="&#x2c7;" horiz-adv-x="449" 
d="M169 540l-104 142h104l56 -76l55 76h104l-104 -142h-111z" />
    <glyph glyph-name="uni02C9" unicode="&#x2c9;" horiz-adv-x="347" 
d="M43 557v92h261v-92h-261z" />
    <glyph glyph-name="breve" unicode="&#x2d8;" horiz-adv-x="460" 
d="M91 682h92q0 -27 14.5 -46t47.5 -19t47.5 19t14.5 46h92q0 -58 -41 -100t-113 -42t-113 42t-41 100z" />
    <glyph glyph-name="dotaccent" unicode="&#x2d9;" horiz-adv-x="259" 
d="M68 553v117h123v-117h-123z" />
    <glyph glyph-name="ring" unicode="&#x2da;" horiz-adv-x="315" 
d="M40 644q0 48 34 80.5t83 32.5t83.5 -32.5t34.5 -79.5q0 -48 -34 -80.5t-83 -32.5t-83.5 32.5t-34.5 79.5zM157 600q19 0 31.5 12.5t12.5 31.5q0 18 -12.5 30.5t-30.5 12.5q-19 0 -31.5 -12.5t-12.5 -30.5q0 -19 12.5 -31.5t30.5 -12.5z" />
    <glyph glyph-name="ogonek" unicode="&#x2db;" horiz-adv-x="298" 
d="M123 0h91q-52 -50 -52 -80q0 -21 25 -21q26 0 55 19l28 -74q-52 -36 -110 -36q-98 0 -98 78q0 49 61 114z" />
    <glyph glyph-name="tilde" unicode="&#x2dc;" horiz-adv-x="462" 
d="M83 545l-45 70q20 22 52.5 40t68.5 18q28 0 65 -20.5t64 -20.5q13 0 24 2t21.5 7t15.5 8t15.5 10.5t11.5 8.5l45 -70q-55 -60 -120 -60q-28 0 -65.5 21.5t-64.5 21.5q-13 0 -24 -2t-21.5 -7t-15.5 -8t-15.5 -10.5t-11.5 -8.5z" />
    <glyph glyph-name="hungarumlaut" unicode="&#x2dd;" horiz-adv-x="445" 
d="M220 540l48 142h119l-79 -142h-88zM58 540l48 142h119l-79 -142h-88z" />
    <glyph glyph-name="Omega" unicode="&#x3a9;" horiz-adv-x="822" 
d="M53 0v113h126q-115 94 -115 238t99.5 238.5t247.5 94.5t247.5 -94.5t99.5 -238.5t-115 -238h126v-113h-298v113q70 20 113 89t43 152q0 96 -58.5 156t-156.5 60h-2q-98 0 -156.5 -60t-58.5 -156q0 -83 43 -152t113 -89v-113h-298z" />
    <glyph glyph-name="pi" unicode="&#x3c0;" horiz-adv-x="694" 
d="M153 0v373h-100v96h583v-96h-99v-215q0 -37 8 -49.5t33 -12.5q26 0 41 6l22 -91q-35 -16 -97 -16q-124 0 -124 151l-1 227h-148v-373h-118z" />
    <glyph glyph-name="Wgrave" unicode="&#x1e80;" horiz-adv-x="880" 
d="M183 0l-173 667h138l109 -499l129 480h114l130 -480l108 499h132l-175 -667h-132l-124 441l-126 -441h-130zM383 717l-114 156h146l73 -156h-105z" />
    <glyph glyph-name="wgrave" unicode="&#x1e81;" horiz-adv-x="749" 
d="M168 0l-159 469h130l90 -326l99 326h99l100 -326l89 326h124l-159 -469h-114l-96 283l-93 -283h-110zM332 540l-79 142h126l48 -142h-95z" />
    <glyph glyph-name="Wacute" unicode="&#x1e82;" horiz-adv-x="880" 
d="M183 0l-173 667h138l109 -499l129 480h114l130 -480l108 499h132l-175 -667h-132l-124 441l-126 -441h-130zM392 717l73 156h146l-114 -156h-105z" />
    <glyph glyph-name="wacute" unicode="&#x1e83;" horiz-adv-x="749" 
d="M168 0l-159 469h130l90 -326l99 326h99l100 -326l89 326h124l-159 -469h-114l-96 283l-93 -283h-110zM328 540l48 142h126l-79 -142h-95z" />
    <glyph glyph-name="Wdieresis" unicode="&#x1e84;" horiz-adv-x="880" 
d="M183 0l-173 667h138l109 -499l129 480h114l130 -480l108 499h132l-175 -667h-132l-124 441l-126 -441h-130zM487 737v117h123v-117h-123zM274 737v117h123v-117h-123z" />
    <glyph glyph-name="wdieresis" unicode="&#x1e85;" horiz-adv-x="749" 
d="M168 0l-159 469h130l90 -326l99 326h99l100 -326l89 326h124l-159 -469h-114l-96 283l-93 -283h-110zM409 557v109h115v-109h-115zM224 557v109h115v-109h-115z" />
    <glyph glyph-name="Ygrave" unicode="&#x1ef2;" horiz-adv-x="600" 
d="M236 0v293l-231 374h138l160 -266l160 266h132l-231 -374v-293h-128zM263 717l-114 156h146l73 -156h-105z" />
    <glyph glyph-name="ygrave" unicode="&#x1ef3;" horiz-adv-x="527" 
d="M24 -176l53 83q27 -23 52 -23q23 0 38.5 18.5t33.5 63.5l15 38l-211 465h136l134 -321l118 321h129l-196 -469q-3 -9 -15 -40t-17.5 -43t-18.5 -38t-24.5 -37.5t-28.5 -26.5t-38.5 -21t-46.5 -6q-71 0 -113 36zM230 540l-79 142h126l48 -142h-95z" />
    <glyph glyph-name="endash" unicode="&#x2013;" horiz-adv-x="500" 
d="M0 224v112h500v-112h-500z" />
    <glyph glyph-name="emdash" unicode="&#x2014;" horiz-adv-x="1000" 
d="M0 224v112h1000v-112h-1000z" />
    <glyph glyph-name="quoteleft" unicode="&#x2018;" horiz-adv-x="268" 
d="M48 455l68 211h89l-22 -211h-135z" />
    <glyph glyph-name="quoteright" unicode="&#x2019;" horiz-adv-x="268" 
d="M63 455l22 211h135l-68 -211h-89z" />
    <glyph glyph-name="quotesinglbase" unicode="&#x201a;" horiz-adv-x="283" 
d="M68 -72l22 211h135l-68 -211h-89z" />
    <glyph glyph-name="quotedblleft" unicode="&#x201c;" horiz-adv-x="458" 
d="M48 455l68 211h89l-22 -211h-135zM238 455l68 211h89l-22 -211h-135z" />
    <glyph glyph-name="quotedblright" unicode="&#x201d;" horiz-adv-x="458" 
d="M63 455l22 211h135l-68 -211h-89zM253 455l22 211h135l-68 -211h-89z" />
    <glyph glyph-name="quotedblbase" unicode="&#x201e;" horiz-adv-x="475" 
d="M68 -72l22 211h135l-68 -211h-89zM261 -72l22 211h135l-68 -211h-89z" />
    <glyph glyph-name="dagger" unicode="&#x2020;" horiz-adv-x="529" 
d="M207 -121v504h-149v96h149v188h115v-188h149v-96h-149v-504h-115z" />
    <glyph glyph-name="daggerdbl" unicode="&#x2021;" horiz-adv-x="539" 
d="M212 -121v188h-149v96h149v220h-149v96h149v188h115v-188h149v-96h-149v-220h149v-96h-149v-188h-115z" />
    <glyph glyph-name="bullet" unicode="&#x2022;" horiz-adv-x="438" 
d="M83 343q0 57 39.5 96.5t96.5 39.5t96.5 -39.5t39.5 -96.5t-39.5 -96.5t-96.5 -39.5t-96.5 39.5t-39.5 96.5z" />
    <glyph glyph-name="ellipsis" unicode="&#x2026;" horiz-adv-x="793" 
d="M325 0v138h143v-138h-143zM585 0v138h143v-138h-143zM66 0v138h143v-138h-143z" />
    <glyph glyph-name="perthousand" unicode="&#x2030;" horiz-adv-x="1306" 
d="M203 0l406 630h107l-406 -630h-107zM210 285q-72 0 -115.5 47t-43.5 134t43.5 134t115.5 47t115.5 -47t43.5 -134t-43.5 -134t-115.5 -47zM210 364q25 0 43 24.5t18 77.5t-18 77.5t-43 24.5t-43 -24.5t-18 -77.5t18 -77.5t43 -24.5zM715 -9q-72 0 -115.5 47t-43.5 134
t43.5 134t115.5 47t115.5 -47t43.5 -134t-43.5 -134t-115.5 -47zM715 70q25 0 43 24.5t18 77.5t-18 77.5t-43 24.5t-43 -24.5t-18 -77.5t18 -77.5t43 -24.5zM1096 -9q-72 0 -115.5 47t-43.5 134t43.5 134t115.5 47t115.5 -47t43.5 -134t-43.5 -134t-115.5 -47zM1096 70
q25 0 43 24.5t18 77.5t-18 77.5t-43 24.5t-43 -24.5t-18 -77.5t18 -77.5t43 -24.5z" />
    <glyph glyph-name="guilsinglleft" unicode="&#x2039;" horiz-adv-x="340" 
d="M162 47l-104 194l104 194h115l-99 -194l99 -194h-115z" />
    <glyph glyph-name="guilsinglright" unicode="&#x203a;" horiz-adv-x="340" 
d="M63 47l99 194l-99 194h115l104 -194l-104 -194h-115z" />
    <glyph glyph-name="fraction" unicode="&#x2044;" horiz-adv-x="195" 
d="M-157 0l406 630h107l-406 -630h-107z" />
    <glyph glyph-name="zerosuperior" unicode="&#x2070;" 
d="M180 285q-72 0 -115.5 47t-43.5 134t43.5 134t115.5 47t115.5 -47t43.5 -134t-43.5 -134t-115.5 -47zM180 364q25 0 43 24.5t18 77.5t-18 77.5t-43 24.5t-43 -24.5t-18 -77.5t18 -77.5t43 -24.5z" />
    <glyph glyph-name="foursuperior" unicode="&#x2074;" 
d="M33 355v71l172 211h96v-211h41v-71h-41v-60h-87v60h-181zM111 426h103v122z" />
    <glyph glyph-name="fivesuperior" unicode="&#x2075;" 
d="M26 322l43 68q36 -30 88 -30q61 0 61 43q0 20 -18 31t-44 11q-35 0 -57 -13l-44 35l38 170h199v-79h-131l-11 -52q20 5 37 5q52 0 87.5 -27.5t35.5 -79.5t-41 -87t-108 -35q-80 0 -135 40z" />
    <glyph glyph-name="sixsuperior" unicode="&#x2076;" 
d="M302 624l-31 -70q-28 15 -60 15q-34 0 -58 -21t-26 -53q34 18 76 18q52 0 86.5 -27t34.5 -83q0 -49 -40 -83.5t-100 -34.5q-62 0 -106 42t-44 125q0 86 47.5 140.5t124.5 54.5q53 0 96 -23zM127 429q0 -36 15 -54.5t40 -18.5q26 0 42 13t16 34q0 19 -13.5 31.5
t-39.5 12.5q-35 0 -60 -18z" />
    <glyph glyph-name="sevensuperior" unicode="&#x2077;" 
d="M185 295h-102q14 44 39.5 94.5t59 107.5t35.5 61h-172v79h269v-80q-31 -48 -72 -127t-57 -135z" />
    <glyph glyph-name="eightsuperior" unicode="&#x2078;" 
d="M99 476q-51 26 -51 73q0 46 38.5 72t92.5 26q55 0 93.5 -26t38.5 -72q0 -47 -51 -73q66 -25 66 -84q0 -52 -42 -79.5t-105 -27.5t-104.5 27.5t-41.5 79.5q0 59 66 84zM181 446q-52 -15 -52 -52q0 -19 14.5 -28.5t35.5 -9.5q20 0 35 9.5t15 28.5q0 37 -48 52zM177 505
q47 14 47 42q0 17 -13 26.5t-32 9.5t-32 -9.5t-13 -26.5q0 -29 43 -42z" />
    <glyph glyph-name="ninesuperior" unicode="&#x2079;" 
d="M54 308l31 70q28 -15 67 -15q75 0 80 74q-34 -18 -76 -18q-52 0 -86.5 27t-34.5 83q0 49 40 83.5t100 34.5q62 0 106 -42.5t44 -124.5q0 -89 -45 -142t-132 -53q-51 0 -94 23zM232 503q0 36 -15 54.5t-40 18.5q-26 0 -42 -13t-16 -34q0 -19 13.5 -31.5t39.5 -12.5
q35 0 60 18z" />
    <glyph glyph-name="zeroinferior" unicode="&#x2080;" 
d="M180 -9q-72 0 -115.5 47t-43.5 134t43.5 134t115.5 47t115.5 -47t43.5 -134t-43.5 -134t-115.5 -47zM180 70q25 0 43 24.5t18 77.5t-18 77.5t-43 24.5t-43 -24.5t-18 -77.5t18 -77.5t43 -24.5z" />
    <glyph glyph-name="oneinferior" unicode="&#x2081;" 
d="M173 1v238l-78 -39l-36 72l126 71h86v-342h-98z" />
    <glyph glyph-name="twoinferior" unicode="&#x2082;" 
d="M49 1v45q0 35 26 66t57 49t57 38.5t26 37.5q0 33 -39 33q-41 0 -97 -35l-36 70q69 48 145 48q63 0 95.5 -29.5t32.5 -76.5q0 -43 -26 -70.5t-69 -52t-61 -43.5h157v-80h-268z" />
    <glyph glyph-name="threeinferior" unicode="&#x2083;" 
d="M30 33l44 68q40 -32 88 -32q54 0 54 41q0 42 -66 42q-26 0 -49 -7l-16 35l106 84h-133v79h240v-76l-77 -61q91 -17 91 -106q0 -48 -40.5 -78.5t-108.5 -30.5q-79 0 -133 42z" />
    <glyph glyph-name="fourinferior" unicode="&#x2084;" 
d="M33 61v71l172 211h96v-211h41v-71h-41v-60h-87v60h-181zM111 132h103v122z" />
    <glyph glyph-name="fiveinferior" unicode="&#x2085;" 
d="M26 28l43 68q36 -30 88 -30q61 0 61 43q0 20 -18 31t-44 11q-35 0 -57 -13l-44 35l38 170h199v-79h-131l-11 -52q20 5 37 5q52 0 87.5 -27.5t35.5 -79.5t-41 -87t-108 -35q-80 0 -135 40z" />
    <glyph glyph-name="sixinferior" unicode="&#x2086;" 
d="M302 330l-31 -70q-28 15 -60 15q-34 0 -58 -21t-26 -53q34 18 76 18q52 0 86.5 -27t34.5 -83q0 -49 -40 -83.5t-100 -34.5q-62 0 -106 42t-44 125q0 86 47.5 140.5t124.5 54.5q53 0 96 -23zM127 135q0 -36 15 -54.5t40 -18.5q26 0 42 13t16 34q0 19 -13.5 31.5
t-39.5 12.5q-35 0 -60 -18z" />
    <glyph glyph-name="seveninferior" unicode="&#x2087;" 
d="M185 1h-102q14 44 39.5 94.5t59 107.5t35.5 61h-172v79h269v-80q-31 -48 -72 -127t-57 -135z" />
    <glyph glyph-name="eightinferior" unicode="&#x2088;" 
d="M99 182q-51 26 -51 73q0 46 38.5 72t92.5 26q55 0 93.5 -26t38.5 -72q0 -47 -51 -73q66 -25 66 -84q0 -52 -42 -79.5t-105 -27.5t-104.5 27.5t-41.5 79.5q0 59 66 84zM181 152q-52 -15 -52 -52q0 -19 14.5 -28.5t35.5 -9.5q20 0 35 9.5t15 28.5q0 37 -48 52zM177 211
q47 14 47 42q0 17 -13 26.5t-32 9.5t-32 -9.5t-13 -26.5q0 -29 43 -42z" />
    <glyph glyph-name="nineinferior" unicode="&#x2089;" 
d="M54 14l31 70q28 -15 67 -15q75 0 80 74q-34 -18 -76 -18q-52 0 -86.5 27t-34.5 83q0 49 40 83.5t100 34.5q62 0 106 -42.5t44 -124.5q0 -89 -45 -142t-132 -53q-51 0 -94 23zM232 209q0 36 -15 54.5t-40 18.5q-26 0 -42 -13t-16 -34q0 -19 13.5 -31.5t39.5 -12.5
q35 0 60 18z" />
    <glyph glyph-name="Euro" unicode="&#x20ac;" horiz-adv-x="545" 
d="M33 206l23 74h55q-1 13 -1 41q0 25 1 38h-78l23 74h66q25 98 88.5 157t158.5 59q101 0 176 -73l-63 -80q-44 44 -110 44q-96 0 -128 -107h189l-23 -74h-179q-1 -13 -1 -38q0 -28 1 -41h192l-23 -74h-155q31 -106 127 -106q66 0 110 44l63 -80q-75 -73 -176 -73
q-95 0 -158 58.5t-88 156.5h-90z" />
    <glyph glyph-name="afii61289" unicode="&#x2113;" horiz-adv-x="472" 
d="M131 225v212q0 137 36 195t108 58q52 0 84.5 -38t32.5 -106q0 -165 -184 -336v-20q0 -75 20.5 -103t58.5 -28q31 0 61 16t46 40l19 -20l21 -18q-58 -86 -156 -86q-146 0 -146 167l-49 -35q-5 11 -25 44q30 20 73 58zM208 490v-201q117 130 117 256q0 87 -54 87
q-28 0 -45.5 -35t-17.5 -107z" />
    <glyph glyph-name="trademark" unicode="&#x2122;" horiz-adv-x="861" 
d="M421 284l12 383h80l106 -163l104 163h85l12 -383h-87l-7 249l-93 -152h-32l-89 142l-7 -239h-84zM161 284v300h-128v83h352v-83h-128v-300h-96z" />
    <glyph glyph-name="uni2126" unicode="&#x2126;" horiz-adv-x="822" 
d="M53 0v113h126q-115 94 -115 238t99.5 238.5t247.5 94.5t247.5 -94.5t99.5 -238.5t-115 -238h126v-113h-298v113q70 20 113 89t43 152q0 96 -58.5 156t-156.5 60h-2q-98 0 -156.5 -60t-58.5 -156q0 -83 43 -152t113 -89v-113h-298z" />
    <glyph glyph-name="estimated" unicode="&#x212e;" horiz-adv-x="893" 
d="M195 335v-197q0 -13 9 -22q101 -107 245 -107q153 0 259 119h57q-52 -64 -137 -101.5t-180 -37.5q-166 0 -283 105.5t-117 254.5t117 255t283 106t284 -106t118 -255v-10h-650q-5 0 -5 -4zM200 358h498q4 0 4 7v197q0 14 -9 24q-102 102 -244 102q-140 0 -244 -106
q-10 -7 -10 -24v-193q0 -7 5 -7z" />
    <glyph glyph-name="onethird" unicode="&#x2153;" horiz-adv-x="925" 
d="M182 295v238l-78 -39l-36 72l126 71h86v-342h-98zM192 0l406 630h107l-406 -630h-107zM574 33l44 68q40 -32 88 -32q54 0 54 41q0 42 -66 42q-26 0 -49 -7l-16 35l106 84h-133v79h240v-76l-77 -61q91 -17 91 -106q0 -48 -40.5 -78.5t-108.5 -30.5q-79 0 -133 42z" />
    <glyph glyph-name="twothirds" unicode="&#x2154;" horiz-adv-x="925" 
d="M56 295v45q0 35 26 66t57 49t57 38.5t26 37.5q0 33 -39 33q-41 0 -97 -35l-36 70q69 48 145 48q63 0 95.5 -29.5t32.5 -76.5q0 -43 -26 -70.5t-69 -52t-61 -43.5h157v-80h-268zM210 0l406 630h107l-406 -630h-107zM592 33l44 68q40 -32 88 -32q54 0 54 41q0 42 -66 42
q-26 0 -49 -7l-16 35l106 84h-133v79h240v-76l-77 -61q91 -17 91 -106q0 -48 -40.5 -78.5t-108.5 -30.5q-79 0 -133 42z" />
    <glyph glyph-name="onefifth" unicode="&#x2155;" horiz-adv-x="925" 
d="M183 295v238l-78 -39l-36 72l126 71h86v-342h-98zM193 0l406 630h107l-406 -630h-107zM571 28l43 68q36 -30 88 -30q61 0 61 43q0 20 -18 31t-44 11q-35 0 -57 -13l-44 35l38 170h199v-79h-131l-11 -52q20 5 37 5q52 0 87.5 -27.5t35.5 -79.5t-41 -87t-108 -35
q-80 0 -135 40z" />
    <glyph glyph-name="twofifths" unicode="&#x2156;" horiz-adv-x="925" 
d="M57 295v45q0 35 26 66t57 49t57 38.5t26 37.5q0 33 -39 33q-41 0 -97 -35l-36 70q69 48 145 48q63 0 95.5 -29.5t32.5 -76.5q0 -43 -26 -70.5t-69 -52t-61 -43.5h157v-80h-268zM211 0l406 630h107l-406 -630h-107zM589 28l43 68q36 -30 88 -30q61 0 61 43q0 20 -18 31
t-44 11q-35 0 -57 -13l-44 35l38 170h199v-79h-131l-11 -52q20 5 37 5q52 0 87.5 -27.5t35.5 -79.5t-41 -87t-108 -35q-80 0 -135 40z" />
    <glyph glyph-name="threefifths" unicode="&#x2157;" horiz-adv-x="925" 
d="M53 327l44 68q40 -32 88 -32q54 0 54 41q0 42 -66 42q-26 0 -49 -7l-16 35l106 84h-133v79h240v-76l-77 -61q91 -17 91 -106q0 -48 -40.5 -78.5t-108.5 -30.5q-79 0 -133 42zM211 0l406 630h107l-406 -630h-107zM589 28l43 68q36 -30 88 -30q61 0 61 43q0 20 -18 31
t-44 11q-35 0 -57 -13l-44 35l38 170h199v-79h-131l-11 -52q20 5 37 5q52 0 87.5 -27.5t35.5 -79.5t-41 -87t-108 -35q-80 0 -135 40z" />
    <glyph glyph-name="fourfifths" unicode="&#x2158;" horiz-adv-x="925" 
d="M44 355v71l172 211h96v-211h41v-71h-41v-60h-87v60h-181zM122 426h103v122zM214 0l406 630h107l-406 -630h-107zM592 28l43 68q36 -30 88 -30q61 0 61 43q0 20 -18 31t-44 11q-35 0 -57 -13l-44 35l38 170h199v-79h-131l-11 -52q20 5 37 5q52 0 87.5 -27.5t35.5 -79.5
t-41 -87t-108 -35q-80 0 -135 40z" />
    <glyph glyph-name="onesixth" unicode="&#x2159;" horiz-adv-x="925" 
d="M186 295v238l-78 -39l-36 72l126 71h86v-342h-98zM196 0l406 630h107l-406 -630h-107zM830 330l-31 -70q-28 15 -60 15q-34 0 -58 -21t-26 -53q35 18 76 18q52 0 86.5 -27t34.5 -83q0 -49 -40 -83.5t-100 -34.5q-62 0 -106 42t-44 125q0 86 47.5 140.5t124.5 54.5
q53 0 96 -23zM655 135q0 -36 15 -54.5t40 -18.5q26 0 42 13t16 34q0 19 -13.5 31.5t-39.5 12.5q-35 0 -60 -18z" />
    <glyph glyph-name="fivesixths" unicode="&#x215a;" horiz-adv-x="925" 
d="M56 322l43 68q36 -30 88 -30q61 0 61 43q0 20 -18 31t-44 11q-35 0 -57 -13l-44 35l38 170h199v-79h-131l-11 -52q20 5 37 5q52 0 87.5 -27.5t35.5 -79.5t-41 -87t-108 -35q-80 0 -135 40zM213 0l406 630h107l-406 -630h-107zM847 330l-31 -70q-28 15 -60 15
q-34 0 -58 -21t-26 -53q34 18 76 18q52 0 86.5 -27t34.5 -83q0 -49 -40 -83.5t-100 -34.5q-62 0 -106 42t-44 125q0 86 47.5 140.5t124.5 54.5q53 0 96 -23zM672 135q0 -36 15 -54.5t40 -18.5q26 0 42 13t16 34q0 19 -13.5 31.5t-39.5 12.5q-35 0 -60 -18z" />
    <glyph glyph-name="oneeighth" unicode="&#x215b;" horiz-adv-x="925" 
d="M175 295v238l-78 -39l-36 72l126 71h86v-342h-98zM185 0l406 630h107l-406 -630h-107zM636 182q-51 26 -51 73q0 46 38.5 72t92.5 26q55 0 93.5 -26t38.5 -72q0 -47 -51 -73q66 -25 66 -84q0 -52 -42 -79.5t-105 -27.5t-104.5 27.5t-41.5 79.5q0 59 66 84zM718 152
q-52 -15 -52 -52q0 -19 14.5 -28.5t35.5 -9.5q20 0 35 9.5t15 28.5q0 37 -48 52zM714 211q47 14 47 42q0 17 -13 26.5t-32 9.5t-32 -9.5t-13 -26.5q0 -29 43 -42z" />
    <glyph glyph-name="threeeighths" unicode="&#x215c;" horiz-adv-x="925" 
d="M45 327l44 68q40 -32 88 -32q54 0 54 41q0 42 -66 42q-26 0 -49 -7l-16 35l106 84h-133v79h240v-76l-77 -61q91 -17 91 -106q0 -48 -40.5 -78.5t-108.5 -30.5q-79 0 -133 42zM203 0l406 630h107l-406 -630h-107zM654 182q-51 26 -51 73q0 46 38.5 72t92.5 26
q55 0 93.5 -26t38.5 -72q0 -47 -51 -73q66 -25 66 -84q0 -52 -42 -79.5t-105 -27.5t-104.5 27.5t-41.5 79.5q0 59 66 84zM736 152q-52 -15 -52 -52q0 -19 14.5 -28.5t35.5 -9.5q20 0 35 9.5t15 28.5q0 37 -48 52zM732 211q47 14 47 42q0 17 -13 26.5t-32 9.5t-32 -9.5
t-13 -26.5q0 -29 43 -42z" />
    <glyph glyph-name="fiveeighths" unicode="&#x215d;" horiz-adv-x="925" 
d="M45 322l43 68q36 -30 88 -30q61 0 61 43q0 20 -18 31t-44 11q-35 0 -57 -13l-44 35l38 170h199v-79h-131l-11 -52q20 5 37 5q52 0 87.5 -27.5t35.5 -79.5t-41 -87t-108 -35q-80 0 -135 40zM202 0l406 630h107l-406 -630h-107zM653 182q-51 26 -51 73q0 46 38.5 72
t92.5 26q55 0 93.5 -26t38.5 -72q0 -47 -51 -73q66 -25 66 -84q0 -52 -42 -79.5t-105 -27.5t-104.5 27.5t-41.5 79.5q0 59 66 84zM735 152q-52 -15 -52 -52q0 -19 14.5 -28.5t35.5 -9.5q20 0 35 9.5t15 28.5q0 37 -48 52zM731 211q47 14 47 42q0 17 -13 26.5t-32 9.5
t-32 -9.5t-13 -26.5q0 -29 43 -42z" />
    <glyph glyph-name="seveneighths" unicode="&#x215e;" horiz-adv-x="925" 
d="M209 295h-102q14 44 39.5 94.5t59 107.5t35.5 61h-172v79h269v-80q-31 -48 -72 -127t-57 -135zM177 0l406 630h107l-406 -630h-107zM628 182q-51 26 -51 73q0 46 38.5 72t92.5 26q55 0 93.5 -26t38.5 -72q0 -47 -51 -73q66 -25 66 -84q0 -52 -42 -79.5t-105 -27.5
t-104.5 27.5t-41.5 79.5q0 59 66 84zM710 152q-52 -15 -52 -52q0 -19 14.5 -28.5t35.5 -9.5q20 0 35 9.5t15 28.5q0 37 -48 52zM706 211q47 14 47 42q0 17 -13 26.5t-32 9.5t-32 -9.5t-13 -26.5q0 -29 43 -42z" />
    <glyph glyph-name="partialdiff" unicode="&#x2202;" horiz-adv-x="549" 
d="M154 506l-46 94q27 16 78 32t100 16q108 0 165.5 -75.5t57.5 -198.5q0 -71 -16 -138t-48 -125t-88.5 -93.5t-128.5 -35.5q-90 0 -138 49t-48 132q0 94 67.5 169.5t170.5 75.5q67 0 118 -30v13q0 60 -32 104t-93 44q-35 0 -84 -17q-19 -7 -35 -16zM384 266q-54 36 -118 36
q-47 0 -78.5 -37t-31.5 -89q0 -42 22.5 -66.5t63.5 -24.5q115 0 142 181z" />
    <glyph glyph-name="Delta" unicode="&#x2206;" horiz-adv-x="711" 
d="M38 0v113l255 554h125l255 -554v-113h-635zM161 113h388l-197 425z" />
    <glyph glyph-name="product" unicode="&#x220f;" horiz-adv-x="761" 
d="M132 -122v678h-109v111h715v-111h-109v-678h-125v678h-247v-678h-125z" />
    <glyph glyph-name="summation" unicode="&#x2211;" horiz-adv-x="578" 
d="M43 -121v113l198 289l-198 275v111h492v-111h-348l195 -275l-196 -289h349v-113h-492z" />
    <glyph glyph-name="minus" unicode="&#x2212;" horiz-adv-x="545" 
d="M74 272v99h398v-99h-398z" />
    <glyph glyph-name="uni2215" unicode="&#x2215;" horiz-adv-x="201" 
d="M-154 0l406 630h107l-406 -630h-107z" />
    <glyph glyph-name="uni2219" unicode="&#x2219;" horiz-adv-x="259" 
d="M68 296v117h123v-117h-123z" />
    <glyph glyph-name="radical" unicode="&#x221a;" horiz-adv-x="592" 
d="M239 0l-138 280h-77v111h151l113 -246l177 587h116l-218 -732h-124z" />
    <glyph glyph-name="infinity" unicode="&#x221e;" horiz-adv-x="689" 
d="M345 191q-20 -30 -56.5 -50t-79.5 -20q-78 0 -127 53t-49 140t49 140t127 53q43 0 79.5 -20.5t56.5 -50.5q20 30 57 50.5t80 20.5q77 0 125.5 -53t48.5 -140t-49 -140t-127 -53q-42 0 -78.5 20.5t-56.5 49.5zM389 314q11 -39 36.5 -63.5t52.5 -24.5q34 0 54.5 26.5
t20.5 61.5t-20.5 61.5t-54.5 26.5q-27 0 -52.5 -24.5t-36.5 -63.5zM300 314q-11 39 -36.5 63.5t-52.5 24.5q-34 0 -54.5 -26.5t-20.5 -61.5t20.5 -61.5t54.5 -26.5q27 0 52.5 24.5t36.5 63.5z" />
    <glyph glyph-name="integral" unicode="&#x222b;" horiz-adv-x="539" 
d="M3 -73l55 78q35 -25 72 -25q29 0 50 17q17 14 21.5 34.5t4.5 62.5v375q0 57 8 93.5t33 63.5q52 59 133 59q91 0 146 -49l-55 -78q-35 25 -72 25q-29 0 -50 -17q-17 -14 -21.5 -34.5t-4.5 -62.5v-380q0 -106 -41 -152q-52 -59 -133 -59q-91 0 -146 49z" />
    <glyph glyph-name="approxequal" unicode="&#x2248;" horiz-adv-x="545" 
d="M111 339l-50 76q22 25 58 45t75 20q31 0 72.5 -23t70.5 -23q17 0 33.5 5t25 9.5t22 14t16.5 11.5l50 -76q-62 -67 -132 -67q-31 0 -73 24t-71 24q-9 0 -17.5 -1.5t-15 -2.5t-14.5 -4.5t-12 -5.5t-11.5 -7t-9.5 -6.5t-9 -7t-8 -5.5zM111 162l-50 76q22 25 58 45t75 20
q31 0 72.5 -23t70.5 -23q17 0 33.5 5t25 9.5t22 14t16.5 11.5l50 -76q-62 -67 -132 -67q-31 0 -73 24t-71 24q-9 0 -17.5 -1.5t-15 -2.5t-14.5 -4.5t-12 -5.5t-11.5 -7t-9.5 -6.5t-9 -7t-8 -5.5z" />
    <glyph glyph-name="notequal" unicode="&#x2260;" horiz-adv-x="545" 
d="M106 107l45 80h-74v99h130l39 69h-169v99h224l63 111l72 -36l-42 -75h75v-99h-131l-39 -69h170v-99h-226l-65 -116z" />
    <glyph glyph-name="lessequal" unicode="&#x2264;" horiz-adv-x="545" 
d="M56 325v72l357 187l43 -85l-267 -138l267 -138l-43 -85zM51 0v99h398v-99h-398z" />
    <glyph glyph-name="greaterequal" unicode="&#x2265;" horiz-adv-x="545" 
d="M132 138l-43 85l267 138l-267 138l43 85l357 -187v-72zM96 0v99h398v-99h-398z" />
    <glyph glyph-name="lozenge" unicode="&#x25ca;" horiz-adv-x="588" 
d="M232 -1l-199 334l199 334h124l199 -334l-199 -334h-124zM294 97l135 236l-135 236l-135 -236z" />
    <glyph glyph-name="oneseventh" unicode="&#xf506;" horiz-adv-x="925" 
d="M181 295v238l-78 -39l-36 72l126 71h86v-342h-98zM191 0l406 630h107l-406 -630h-107zM728 1h-102q14 44 39.5 94.5t59 107.5t35.5 61h-172v79h269v-80q-31 -48 -72 -127t-57 -135z" />
    <glyph glyph-name="twosevenths" unicode="&#xf507;" horiz-adv-x="925" 
d="M55 295v45q0 35 26 66t57 49t57 38.5t26 37.5q0 33 -39 33q-41 0 -97 -35l-36 70q69 48 145 48q63 0 95.5 -29.5t32.5 -76.5q0 -43 -26 -70.5t-69 -52t-61 -43.5h157v-80h-268zM209 0l406 630h107l-406 -630h-107zM746 1h-102q14 44 39.5 94.5t59 107.5t35.5 61h-172v79
h269v-80q-31 -48 -72 -127t-57 -135z" />
    <glyph glyph-name="threesevenths" unicode="&#xf508;" horiz-adv-x="925" 
d="M51 327l44 68q40 -32 88 -32q54 0 54 41q0 42 -66 42q-26 0 -49 -7l-16 35l106 84h-133v79h240v-76l-77 -61q91 -17 91 -106q0 -48 -40.5 -78.5t-108.5 -30.5q-79 0 -133 42zM209 0l406 630h107l-406 -630h-107zM746 1h-102q14 44 39.5 94.5t59 107.5t35.5 61h-172v79
h269v-80q-31 -48 -72 -127t-57 -135z" />
    <glyph glyph-name="foursevenths" unicode="&#xf509;" horiz-adv-x="925" 
d="M42 355v71l172 211h96v-211h41v-71h-41v-60h-87v60h-181zM120 426h103v122zM212 0l406 630h107l-406 -630h-107zM749 1h-102q14 44 39.5 94.5t59 107.5t35.5 61h-172v79h269v-80q-31 -48 -72 -127t-57 -135z" />
    <glyph glyph-name="fivesevenths" unicode="&#xf50a;" horiz-adv-x="925" 
d="M51 322l43 68q36 -30 88 -30q61 0 61 43q0 20 -18 31t-44 11q-35 0 -57 -13l-44 35l38 170h199v-79h-131l-11 -52q20 5 37 5q52 0 87.5 -27.5t35.5 -79.5t-41 -87t-108 -35q-80 0 -135 40zM208 0l406 630h107l-406 -630h-107zM745 1h-102q14 44 39.5 94.5t59 107.5
t35.5 61h-172v79h269v-80q-31 -48 -72 -127t-57 -135z" />
    <glyph glyph-name="sixsevenths" unicode="&#xf50b;" horiz-adv-x="925" 
d="M313 624l-31 -70q-28 15 -60 15q-34 0 -58 -21t-26 -53q34 18 76 18q52 0 86.5 -27t34.5 -83q0 -49 -40 -83.5t-100 -34.5q-62 0 -106 42t-44 125q0 86 47.5 140.5t124.5 54.5q53 0 96 -23zM138 429q0 -36 15 -54.5t40 -18.5q26 0 42 13t16 34q0 19 -13.5 31.5
t-39.5 12.5q-35 0 -60 -18zM214 0l406 630h107l-406 -630h-107zM751 1h-102q14 44 39.5 94.5t59 107.5t35.5 61h-172v79h269v-80q-31 -48 -72 -127t-57 -135z" />
    <glyph glyph-name="oneninth" unicode="&#xf50c;" horiz-adv-x="925" 
d="M176 295v238l-78 -39l-36 72l126 71h86v-342h-98zM186 0l406 630h107l-406 -630h-107zM592 14l31 70q28 -15 67 -15q75 0 80 74q-34 -18 -76 -18q-52 0 -86.5 27t-34.5 83q0 49 40 83.5t100 34.5q62 0 106 -42.5t44 -124.5q0 -89 -45 -142t-132 -53q-51 0 -94 23z
M770 209q0 36 -15 54.5t-40 18.5q-26 0 -42 -13t-16 -34q0 -19 13.5 -31.5t39.5 -12.5q35 0 60 18z" />
    <glyph glyph-name="twoninths" unicode="&#xf50d;" horiz-adv-x="925" 
d="M50 295v45q0 35 26 66t57 49t57 38.5t26 37.5q0 33 -39 33q-41 0 -97 -35l-36 70q69 48 145 48q63 0 95.5 -29.5t32.5 -76.5q0 -43 -26 -70.5t-69 -52t-61 -43.5h157v-80h-268zM204 0l406 630h107l-406 -630h-107zM610 14l31 70q28 -15 67 -15q75 0 80 74
q-34 -18 -76 -18q-52 0 -86.5 27t-34.5 83q0 49 40 83.5t100 34.5q62 0 106 -42.5t44 -124.5q0 -89 -45 -142t-132 -53q-51 0 -94 23zM788 209q0 36 -15 54.5t-40 18.5q-26 0 -42 -13t-16 -34q0 -19 13.5 -31.5t39.5 -12.5q35 0 60 18z" />
    <glyph glyph-name="fourninths" unicode="&#xf50e;" horiz-adv-x="925" 
d="M36 355v71l172 211h96v-211h41v-71h-41v-60h-87v60h-181zM114 426h103v122zM206 0l406 630h107l-406 -630h-107zM612 14l31 70q28 -15 67 -15q75 0 80 74q-34 -18 -76 -18q-52 0 -86.5 27t-34.5 83q0 49 40 83.5t100 34.5q62 0 106 -42.5t44 -124.5q0 -89 -45 -142
t-132 -53q-51 0 -94 23zM790 209q0 36 -15 54.5t-40 18.5q-26 0 -42 -13t-16 -34q0 -19 13.5 -31.5t39.5 -12.5q35 0 60 18z" />
    <glyph glyph-name="fiveninths" unicode="&#xf50f;" horiz-adv-x="925" 
d="M45 322l43 68q36 -30 88 -30q61 0 61 43q0 20 -18 31t-44 11q-35 0 -57 -13l-44 35l38 170h199v-79h-131l-11 -52q20 5 37 5q52 0 87.5 -27.5t35.5 -79.5t-41 -87t-108 -35q-80 0 -135 40zM202 0l406 630h107l-406 -630h-107zM608 14l31 70q28 -15 67 -15q75 0 80 74
q-34 -18 -76 -18q-52 0 -86.5 27t-34.5 83q0 49 40 83.5t100 34.5q62 0 106 -42.5t44 -124.5q0 -89 -45 -142t-132 -53q-51 0 -94 23zM786 209q0 36 -15 54.5t-40 18.5q-26 0 -42 -13t-16 -34q0 -19 13.5 -31.5t39.5 -12.5q35 0 60 18z" />
    <glyph glyph-name="sevenninths" unicode="&#xf510;" horiz-adv-x="925" 
d="M200 295h-102q14 44 39.5 94.5t59 107.5t35.5 61h-172v79h269v-80q-31 -48 -72 -127t-57 -135zM168 0l406 630h107l-406 -630h-107zM574 14l31 70q28 -15 67 -15q75 0 80 74q-34 -18 -76 -18q-52 0 -86.5 27t-34.5 83q0 49 40 83.5t100 34.5q62 0 106 -42.5t44 -124.5
q0 -89 -45 -142t-132 -53q-51 0 -94 23zM752 209q0 36 -15 54.5t-40 18.5q-26 0 -42 -13t-16 -34q0 -19 13.5 -31.5t39.5 -12.5q35 0 60 18z" />
    <glyph glyph-name="eightninths" unicode="&#xf511;" horiz-adv-x="925" 
d="M105 476q-51 26 -51 73q0 46 38.5 72t92.5 26q55 0 93.5 -26t38.5 -72q0 -47 -51 -73q66 -25 66 -84q0 -52 -42 -79.5t-105 -27.5t-104.5 27.5t-41.5 79.5q0 59 66 84zM187 446q-52 -15 -52 -52q0 -19 14.5 -28.5t35.5 -9.5q20 0 35 9.5t15 28.5q0 37 -48 52zM183 505
q47 14 47 42q0 17 -13 26.5t-32 9.5t-32 -9.5t-13 -26.5q0 -29 43 -42zM209 0l406 630h107l-406 -630h-107zM615 14l31 70q28 -15 67 -15q75 0 80 74q-35 -18 -76 -18q-52 0 -86.5 27t-34.5 83q0 49 40 83.5t100 34.5q62 0 106 -42.5t44 -124.5q0 -89 -45 -142t-132 -53
q-51 0 -94 23zM793 209q0 36 -15 54.5t-40 18.5q-26 0 -42 -13t-16 -34q0 -19 13.5 -31.5t39.5 -12.5q35 0 60 18z" />
    <glyph glyph-name="zero.alt" unicode="&#xf800;" horiz-adv-x="579" 
d="M289 -16q-119 0 -182.5 92t-63.5 247q0 150 63.5 237.5t183.5 87.5q119 0 182.5 -87.5t63.5 -237.5q0 -155 -63.5 -247t-183.5 -92zM290 92q60 0 92.5 64.5t32.5 166.5q0 98 -32.5 157t-93.5 59q-60 0 -92.5 -59t-32.5 -157q0 -102 33 -166.5t93 -64.5z" />
    <glyph glyph-name="one.alt" unicode="&#xf801;" horiz-adv-x="438" 
d="M79 0v103h108v398l-121 -64l-49 92l185 101h103v-527h104v-103h-330z" />
    <glyph glyph-name="two.alt" unicode="&#xf802;" horiz-adv-x="504" 
d="M52 0v79q0 33 11 65t22.5 52.5t39 49t40 39.5t46.5 40q14 12 39.5 33t34.5 29t21.5 22.5t16.5 27.5t4 30q0 31 -21.5 53.5t-68.5 22.5q-73 0 -117 -74l-88 63q70 116 215 116q101 0 153.5 -50t52.5 -120q0 -61 -34 -108.5t-94 -97.5q-11 -9 -42.5 -34.5t-41.5 -34.5
t-27.5 -27.5t-23 -34.5t-5.5 -34h272v-107h-405z" />
    <glyph glyph-name="three.alt" unicode="&#xf803;" horiz-adv-x="514" 
d="M12 55l68 83q60 -53 134 -53q54 0 86 29.5t32 77.5q0 101 -109 101q-20 0 -56 -9l-35 56l161 181h-236v108h377v-90l-140 -164q81 -9 122 -58t41 -126q0 -96 -68.5 -152.5t-173.5 -56.5q-123 0 -203 73z" />
    <glyph glyph-name="four.alt" unicode="&#xf804;" horiz-adv-x="534" 
d="M39 121v99l275 410h118v-409h65v-100h-65v-121h-113v121h-280zM153 221h166v243z" />
    <glyph glyph-name="five.alt" unicode="&#xf805;" horiz-adv-x="517" 
d="M12 54l66 85q58 -52 137 -52q60 0 89.5 33.5t29.5 83.5q0 39 -29 72.5t-96 33.5q-36 0 -91 -19l-60 46l63 292h327v-110h-242l-25 -121q20 9 65 9q93 0 151.5 -54t58.5 -144q0 -98 -60.5 -162.5t-187.5 -64.5q-117 0 -196 72z" />
    <glyph glyph-name="six.alt" unicode="&#xf806;" horiz-adv-x="539" 
d="M487 606l-51 -93l-30 15q-38 16 -78 16q-69 0 -114 -54.5t-45 -125.5q1 1 11 7t13 7.5t13.5 7t16 7.5t16 5.5t19 5t20 3t23.5 1.5q88 0 142 -55t54 -151q0 -93 -57 -156.5t-158 -63.5q-105 0 -168.5 77.5t-63.5 232.5q0 161 72.5 258.5t206.5 97.5q85 0 158 -42zM168 269
q0 -184 114 -184q47 0 75.5 33.5t28.5 87.5q0 46 -26.5 73.5t-69.5 27.5q-65 0 -122 -38z" />
    <glyph glyph-name="seven.alt" unicode="&#xf807;" horiz-adv-x="474" 
d="M216 0h-128q40 128 111 289t114 230h-287v111h408v-106q-42 -67 -116 -241t-102 -283z" />
    <glyph glyph-name="eight.alt" unicode="&#xf808;" horiz-adv-x="560" 
d="M280 391q39 11 63.5 37t24.5 56q0 33 -24.5 54.5t-63.5 21.5q-37 0 -62.5 -22t-25.5 -57q0 -27 24.5 -53t63.5 -37zM278 294q-48 -10 -81.5 -41.5t-33.5 -72.5q0 -49 35.5 -74t81.5 -25t81.5 25t35.5 74q0 41 -35 72.5t-84 41.5zM160 349q-33 19 -56 55t-23 77
q0 75 55 121t144 46q95 0 147 -44.5t52 -117.5q0 -44 -23.5 -79t-58.5 -54q120 -51 120 -174q0 -75 -60 -135t-177 -60q-119 0 -178 59t-59 134q0 59 31 103.5t86 68.5z" />
    <glyph glyph-name="nine.alt" unicode="&#xf809;" horiz-adv-x="543" 
d="M58 26l48 95q11 -7 37 -17q46 -16 86 -16q68 0 106 51t40 124q-53 -43 -135 -43q-86 0 -141.5 60.5t-55.5 147.5q0 92 59 156t160 64q105 0 168.5 -77.5t63.5 -232.5q0 -160 -67.5 -257t-199.5 -97q-50 0 -97.5 13.5t-71.5 28.5zM376 361q0 184 -114 184q-48 0 -78 -32.5
t-30 -85.5q0 -45 27.5 -73.5t74.5 -28.5q66 0 120 36z" />
    <glyph glyph-name="zero.sups" unicode="&#xf80a;" 
d="M180 375q-72 0 -115.5 47t-43.5 134t43.5 134t115.5 47t115.5 -47t43.5 -134t-43.5 -134t-115.5 -47zM180 454q25 0 43 24.5t18 77.5t-18 77.5t-43 24.5t-43 -24.5t-18 -77.5t18 -77.5t43 -24.5z" />
    <glyph glyph-name="one.sups" unicode="&#xf80b;" 
d="M173 385v238l-78 -39l-36 72l126 71h86v-342h-98z" />
    <glyph glyph-name="two.sups" unicode="&#xf80c;" 
d="M49 385v45q0 35 26 66t57 49t57 38.5t26 37.5q0 33 -39 33q-41 0 -97 -35l-36 70q69 48 145 48q63 0 95.5 -29.5t32.5 -76.5q0 -43 -26 -70.5t-69 -52t-61 -43.5h157v-80h-268z" />
    <glyph glyph-name="three.sups" unicode="&#xf80d;" 
d="M30 417l44 68q40 -32 88 -32q54 0 54 41q0 42 -66 42q-26 0 -49 -7l-16 35l106 84h-133v79h240v-76l-77 -61q91 -17 91 -106q0 -48 -40.5 -78.5t-108.5 -30.5q-79 0 -133 42z" />
    <glyph glyph-name="four.sups" unicode="&#xf80e;" 
d="M33 445v71l172 211h96v-211h41v-71h-41v-60h-87v60h-181zM111 516h103v122z" />
    <glyph glyph-name="five.sups" unicode="&#xf80f;" 
d="M26 412l43 68q36 -30 88 -30q61 0 61 43q0 20 -18 31t-44 11q-35 0 -57 -13l-44 35l38 170h199v-79h-131l-11 -52q20 5 37 5q52 0 87.5 -27.5t35.5 -79.5t-41 -87t-108 -35q-80 0 -135 40z" />
    <glyph glyph-name="six.sups" unicode="&#xf810;" 
d="M302 714l-31 -70q-28 15 -60 15q-34 0 -58 -21t-26 -53q34 18 76 18q52 0 86.5 -27t34.5 -83q0 -49 -40 -83.5t-100 -34.5q-62 0 -106 42t-44 125q0 86 47.5 140.5t124.5 54.5q53 0 96 -23zM127 519q0 -36 15 -54.5t40 -18.5q26 0 42 13t16 34q0 19 -13.5 31.5
t-39.5 12.5q-35 0 -60 -18z" />
    <glyph glyph-name="seven.sups" unicode="&#xf811;" 
d="M185 385h-102q14 44 39.5 94.5t59 107.5t35.5 61h-172v79h269v-80q-31 -48 -72 -127t-57 -135z" />
    <glyph glyph-name="eight.sups" unicode="&#xf812;" 
d="M99 566q-51 26 -51 73q0 46 38.5 72t92.5 26q55 0 93.5 -26t38.5 -72q0 -47 -51 -73q66 -25 66 -84q0 -52 -42 -79.5t-105 -27.5t-104.5 27.5t-41.5 79.5q0 59 66 84zM181 536q-52 -15 -52 -52q0 -19 14.5 -28.5t35.5 -9.5q20 0 35 9.5t15 28.5q0 37 -48 52zM177 595
q47 14 47 42q0 17 -13 26.5t-32 9.5t-32 -9.5t-13 -26.5q0 -29 43 -42z" />
    <glyph glyph-name="nine.sups" unicode="&#xf813;" 
d="M54 398l31 70q28 -15 67 -15q75 0 80 74q-34 -18 -76 -18q-52 0 -86.5 27t-34.5 83q0 49 40 83.5t100 34.5q62 0 106 -42.5t44 -124.5q0 -89 -45 -142t-132 -53q-51 0 -94 23zM232 593q0 36 -15 54.5t-40 18.5q-26 0 -42 -13t-16 -34q0 -19 13.5 -31.5t39.5 -12.5
q35 0 60 18z" />
    <glyph glyph-name="zero.sinf" unicode="&#xf814;" 
d="M180 -99q-72 0 -115.5 47t-43.5 134t43.5 134t115.5 47t115.5 -47t43.5 -134t-43.5 -134t-115.5 -47zM180 -20q25 0 43 24.5t18 77.5t-18 77.5t-43 24.5t-43 -24.5t-18 -77.5t18 -77.5t43 -24.5z" />
    <glyph glyph-name="one.sinf" unicode="&#xf815;" 
d="M173 -89v238l-78 -39l-36 72l126 71h86v-342h-98z" />
    <glyph glyph-name="two.sinf" unicode="&#xf816;" 
d="M49 -89v45q0 35 26 66t57 49t57 38.5t26 37.5q0 33 -39 33q-41 0 -97 -35l-36 70q69 48 145 48q63 0 95.5 -29.5t32.5 -76.5q0 -43 -26 -70.5t-69 -52t-61 -43.5h157v-80h-268z" />
    <glyph glyph-name="three.sinf" unicode="&#xf817;" 
d="M30 -57l44 68q40 -32 88 -32q54 0 54 41q0 42 -66 42q-26 0 -49 -7l-16 35l106 84h-133v79h240v-76l-77 -61q91 -17 91 -106q0 -48 -40.5 -78.5t-108.5 -30.5q-79 0 -133 42z" />
    <glyph glyph-name="four.sinf" unicode="&#xf818;" 
d="M33 -29v71l172 211h96v-211h41v-71h-41v-60h-87v60h-181zM111 42h103v122z" />
    <glyph glyph-name="five.sinf" unicode="&#xf819;" 
d="M26 -62l43 68q36 -30 88 -30q61 0 61 43q0 20 -18 31t-44 11q-35 0 -57 -13l-44 35l38 170h199v-79h-131l-11 -52q20 5 37 5q52 0 87.5 -27.5t35.5 -79.5t-41 -87t-108 -35q-80 0 -135 40z" />
    <glyph glyph-name="six.sinf" unicode="&#xf81a;" 
d="M302 240l-31 -70q-28 15 -60 15q-34 0 -58 -21t-26 -53q35 18 76 18q52 0 86.5 -27t34.5 -83q0 -49 -40 -83.5t-100 -34.5q-62 0 -106 42t-44 125q0 86 47.5 140.5t124.5 54.5q53 0 96 -23zM127 45q0 -36 15 -54.5t40 -18.5q26 0 42 13t16 34q0 19 -13.5 31.5t-39.5 12.5
q-35 0 -60 -18z" />
    <glyph glyph-name="seven.sinf" unicode="&#xf81b;" 
d="M185 -89h-102q14 44 39.5 94.5t59 107.5t35.5 61h-172v79h269v-80q-31 -48 -72 -127t-57 -135z" />
    <glyph glyph-name="eight.sinf" unicode="&#xf81c;" 
d="M99 92q-51 26 -51 73q0 46 38.5 72t92.5 26q55 0 93.5 -26t38.5 -72q0 -47 -51 -73q66 -25 66 -84q0 -52 -42 -79.5t-105 -27.5t-104.5 27.5t-41.5 79.5q0 59 66 84zM181 62q-52 -15 -52 -52q0 -19 14.5 -28.5t35.5 -9.5q20 0 35 9.5t15 28.5q0 37 -48 52zM177 121
q47 14 47 42q0 17 -13 26.5t-32 9.5t-32 -9.5t-13 -26.5q0 -29 43 -42z" />
    <glyph glyph-name="nine.sinf" unicode="&#xf81d;" 
d="M54 -76l31 70q28 -15 67 -15q75 0 80 74q-34 -18 -76 -18q-52 0 -86.5 27t-34.5 83q0 49 40 83.5t100 34.5q62 0 106 -42.5t44 -124.5q0 -89 -45 -142t-132 -53q-51 0 -94 23zM232 119q0 36 -15 54.5t-40 18.5q-26 0 -42 -13t-16 -34q0 -19 13.5 -31.5t39.5 -12.5
q35 0 60 18z" />
    <glyph glyph-name="CR" horiz-adv-x="175" 
 />
    <glyph glyph-name="hungarumlaut.cap" horiz-adv-x="498" 
d="M51 717l73 156h138l-114 -156h-97zM236 717l73 156h138l-114 -156h-97z" />
    <glyph glyph-name="cedilla.cap" horiz-adv-x="356" 
d="M91 -198l13 69q33 -12 70 -12q56 0 56 30q0 29 -52 29q-37 0 -64 -11l11 68q41 12 85 12q54 0 85.5 -25.5t31.5 -67.5q0 -50 -39.5 -78t-93.5 -28q-42 0 -75 7q-18 3 -28 7z" />
    <glyph glyph-name="tilde.cap" horiz-adv-x="490" 
d="M92 729l-49 75q61 61 128 61q30 0 68.5 -21t66.5 -21q45 0 92 37l49 -75q-63 -63 -127 -63q-29 0 -68.5 22t-67.5 22q-45 0 -92 -37z" />
    <glyph glyph-name="ogonek.cap" horiz-adv-x="298" 
d="M122 0h93q-47 -47 -47 -82q0 -21 26 -21q25 0 50 17l29 -75q-56 -37 -113 -37q-50 0 -75.5 21.5t-25.5 58.5q0 53 63 118z" />
    <glyph glyph-name="ring.cap" horiz-adv-x="315" 
d="M26 803q0 56 38 92t93 36q56 0 94 -36t38 -91q0 -56 -38 -92t-93 -36q-56 0 -94 36t-38 91zM158 751q23 0 36.5 14.5t13.5 38.5t-13.5 38t-37.5 14q-23 0 -36.5 -14.5t-13.5 -38.5t13.5 -38t37.5 -14z" />
    <glyph glyph-name="caron.cap" horiz-adv-x="417" 
d="M153 717l-110 156h104l62 -82l61 82h104l-110 -156h-111z" />
    <glyph glyph-name="macron.cap" horiz-adv-x="361" 
d="M23 747v97h315v-97h-315z" />
    <glyph glyph-name="dieresis.cap" horiz-adv-x="322" 
d="M206 737v117h123v-117h-123zM-7 737v117h123v-117h-123z" />
    <glyph glyph-name="dotaccent.cap" horiz-adv-x="215" 
d="M43 734v123h129v-123h-129z" />
    <glyph glyph-name="circumflex.cap" horiz-adv-x="417" 
d="M43 717l110 156h111l110 -156h-104l-62 82l-61 -82h-104z" />
    <glyph glyph-name="acute.cap" horiz-adv-x="305" 
d="M43 717l73 156h146l-114 -156h-105z" />
    <glyph glyph-name="grave.cap" horiz-adv-x="305" 
d="M157 717l-114 156h146l73 -156h-105z" />
    <glyph glyph-name="breve.cap" horiz-adv-x="406" 
d="M43 863h93q0 -28 18 -47.5t49 -19.5t49 19.5t18 47.5h93q0 -62 -41.5 -105.5t-118.5 -43.5t-118.5 43.5t-41.5 105.5z" />
    <glyph glyph-name="commaaccent.cap" horiz-adv-x="238" 
d="M23 -209l53 158h139l-88 -158h-104z" />
    <glyph glyph-name="caron.alt" horiz-adv-x="374" 
d="M112 498v169h110l-34 -169h-76z" />
    <glyph glyph-name="commaaccent" horiz-adv-x="181" 
d="M5 -193l48 142h126l-79 -142h-95z" />
    <glyph glyph-name="revcommaaccent" horiz-adv-x="181" 
d="M5 540l79 142h95l-48 -142h-126z" />
    <glyph glyph-name="at.alt" horiz-adv-x="797" 
d="M316 278v50h-261q-3 88 25 156.5t78 109t110.5 60.5t128.5 20q159 0 258 -94t99 -266q0 -167 -68.5 -248.5t-188.5 -81.5q-102 0 -151 69q-53 -69 -151 -69q-69 0 -119.5 37t-50.5 108q0 77 52 115t145 38q15 0 51 -2t43 -2zM167 415h149v89h109v-89h110v-87h-110v-166
q0 -43 19.5 -63.5t63.5 -20.5q143 0 143 246q0 128 -72 193t-182 65q-104 0 -167 -54.5t-63 -112.5zM316 134v60q-8 0 -40 1.5t-46 1.5q-49 0 -73 -17.5t-24 -45.5q0 -56 80 -56q35 0 64.5 15t38.5 41z" />
    </font>
</defs>
</svg>
